<svg xmlns="http://www.w3.org/2000/svg" xmlns:xlink="http://www.w3.org/1999/xlink" xmlns:fi="http://pattern.flaticon.com/" x="0" y="0" width="2160" height="1080" viewBox="0 0 7560 3780"><rect x="0px" y="0px" width="100%" height="100%" opacity="1" fill="#f5cbbd"/><defs><g transform="matrix(0.1489361673593521 0 0 0.1489361673593521 -7 -33)" id="L1_320"><path d="M235,15C113.691,15,15,113.691,15,235s98.691,220,220,220s220-98.691,220-220S356.309,15,235,15z    M235,417.556c-100.661,0-182.556-81.895-182.556-182.556S134.339,52.444,235,52.444S417.556,134.339,417.556,235   S335.661,417.556,235,417.556z" fill="#ffcb59"/><path d="M401.17,68.83C356.784,24.444,297.771,0,235,0S113.216,24.444,68.83,68.83S0,172.229,0,235   s24.444,121.784,68.83,166.17S172.229,470,235,470s121.784-24.444,166.17-68.83S470,297.771,470,235S445.556,113.216,401.17,68.83z    M235,455c-121.309,0-220-98.691-220-220S113.691,15,235,15s220,98.691,220,220S356.309,455,235,455z" fill="#3d2a20"/><path d="M227.5,222.009v-53.144c0-4.143,3.357-7.5,7.5-7.5s7.5,3.357,7.5,7.5v53.144l133.672-77.176   C347.629,100.302,298.605,70.105,242.5,67.62v71.245c0,4.143-3.357,7.5-7.5,7.5s-7.5-3.357-7.5-7.5V67.62   c-56.105,2.484-105.129,32.681-133.672,77.213L227.5,222.009z" fill="#fff5de"/><path d="M343.238,306.151c-3.587-2.071-4.816-6.658-2.745-10.245c2.069-3.588,6.659-4.816,10.245-2.745   l32.948,19.023c12.047-23.114,18.87-49.365,18.87-77.184s-6.823-54.07-18.87-77.184L250,235l74.758,43.161   c3.587,2.071,4.816,6.658,2.745,10.245c-1.389,2.406-3.91,3.751-6.502,3.751c-1.272,0-2.562-0.324-3.743-1.006L242.5,247.99v154.39   c56.105-2.484,105.129-32.681,133.672-77.213L343.238,306.151z" fill="#fff5de"/><path d="M227.5,402.38V247.99L93.828,325.166C122.371,369.698,171.395,399.895,227.5,402.38z" fill="#fff5de"/><path d="M220,235L86.314,157.816C74.267,180.93,67.444,207.181,67.444,235s6.823,54.07,18.87,77.184L220,235   z" fill="#fff5de"/><path d="M235,52.444C134.339,52.444,52.444,134.339,52.444,235S134.339,417.556,235,417.556   S417.556,335.661,417.556,235S335.661,52.444,235,52.444z M227.5,67.62v71.245c0,4.143,3.357,7.5,7.5,7.5s7.5-3.357,7.5-7.5V67.62   c56.105,2.484,105.129,32.681,133.672,77.213L242.5,222.01v-53.144c0-4.143-3.357-7.5-7.5-7.5s-7.5,3.357-7.5,7.5v53.144   L93.828,144.834C122.371,100.302,171.395,70.105,227.5,67.62z M86.314,157.816L220,235L86.314,312.184   C74.267,289.07,67.444,262.819,67.444,235S74.267,180.93,86.314,157.816z M227.5,247.99V402.38   c-56.105-2.484-105.129-32.681-133.672-77.213L227.5,247.99z M242.5,402.38V247.99l74.758,43.161   c1.182,0.682,2.471,1.006,3.743,1.006c2.592,0,5.113-1.345,6.502-3.751c2.071-3.587,0.842-8.174-2.745-10.245L250,235   l133.685-77.184c12.047,23.114,18.87,49.366,18.87,77.184s-6.823,54.07-18.87,77.184l-32.948-19.023   c-3.586-2.071-8.176-0.843-10.245,2.745c-2.071,3.587-0.842,8.174,2.745,10.245l32.933,19.015   C347.629,369.698,298.605,399.895,242.5,402.38z" fill="#3d2a20"/></g><g transform="matrix(0.10638071596622467 0 0 0.10638071596622467 180 -19.000000259718547)" id="L1_322"><path d="M425.487,66.605c1.807-3.727,6.29-5.288,10.021-3.479c6.79,3.29,13.305,7.134,19.476,11.486   c0.006-0.356,0.026-0.71,0.026-1.067c0-32.279-26.261-58.54-58.54-58.54c-15.634,0-30.334,6.088-41.391,17.142   c-1.256,1.236-5.908,5.895-23.899,23.89c23.583-7.726,49.186-9.092,74.396-3.386c4.039,0.915,6.573,4.931,5.658,8.971   c-0.016,0.069-0.039,0.135-0.057,0.203c4.813,1.381,9.563,3.042,14.225,4.98C425.432,66.739,425.455,66.671,425.487,66.605z" fill="#a3e175"/><path d="M428.967,76.625c-3.662-1.774-5.221-6.133-3.564-9.82c-4.662-1.938-9.412-3.599-14.225-4.98   c-1.002,3.919-4.942,6.351-8.914,5.456c-41.982-9.504-85.186,2.939-115.607,33.284c-10.389,10.389-22.347,22.348-36.114,36.114   c9.962-3.281,20.314-5.454,30.867-6.415c4.108-0.375,7.772,2.664,8.148,6.79c0.007,0.074,0.004,0.146,0.009,0.22   c4.954-0.17,9.914-0.066,14.858,0.318c0.008-0.073,0.009-0.145,0.018-0.218c0.553-4.105,4.328-6.983,8.435-6.431   c28.012,3.775,53.609,15.664,74.501,34.478l50.479-50.478c6.728-6.726,11.604-14.804,14.401-23.617   C445.056,85.574,437.242,80.634,428.967,76.625z" fill="#03e6ff"/><path d="M289.567,137.274c0.25,4.033-2.747,7.56-6.798,7.929c-28.834,2.625-56.01,15.339-76.555,35.804   c-13.041,13.041-27.216,27.215-42.637,42.636c46.191-15.111,98.759-5.542,136.866,28.712l76.311-76.309   c-18.535-16.481-41.154-26.905-65.88-30.237c-4.031-0.543-6.874-4.197-6.449-8.217   C299.481,137.208,294.521,137.103,289.567,137.274z" fill="#e7453f"/><path d="M142.66,305.389c4.089,0.662,6.867,4.514,6.205,8.603c-0.011,0.07-0.031,0.135-0.044,0.204   c4.894,1.079,9.738,2.443,14.508,4.085c0.026-0.068,0.044-0.137,0.072-0.205c1.57-3.833,5.951-5.669,9.782-4.1   c14.852,6.079,28.38,14.585,40.313,25.324l76.319-76.317c-48.839-43.336-123.837-41.654-170.637,5.058   c-13.429,13.429-27.618,27.618-42.619,42.617C97.59,303.73,120.259,301.762,142.66,305.389z" fill="#ec6a65"/><path d="M140.264,320.196c-18.744-3.034-37.697-1.681-55.459,3.592   c35.222,5.437,62.276,35.956,62.276,72.677c0,3.372-0.249,6.686-0.69,9.94l56.48-56.479c-10.504-9.333-22.368-16.746-35.368-22.068   c-3.766-1.541-5.595-5.794-4.173-9.577c-4.77-1.641-9.613-3.005-14.508-4.085C148.065,318.17,144.276,320.843,140.264,320.196z" fill="#ffcb59"/><path d="M132.08,396.465c0-32.279-26.261-58.54-58.54-58.54S15,364.186,15,396.465s26.261,58.54,58.54,58.54   S132.08,428.744,132.08,396.465z" fill="#ffffff"/><path d="M396.47,0.005c-19.64,0-38.105,7.647-51.996,21.534C344.228,21.785,22.202,343.88,20.96,345.122    C8.005,358.386,0,376.504,0,396.465c0,40.55,32.99,73.54,73.54,73.54c19.956,0,38.071-8.002,51.334-20.951L448.465,125.55    c9.832-9.83,16.52-21.958,19.6-35.169c0.021-0.087,0.041-0.174,0.059-0.261c1.233-5.376,1.886-10.924,1.886-16.575    C470.01,32.995,437.02,0.005,396.47,0.005z M73.54,455.005c-32.279,0-58.54-26.261-58.54-58.54s26.261-58.54,58.54-58.54    s58.54,26.261,58.54,58.54S105.819,455.005,73.54,455.005z M213.496,339.3c-11.933-10.739-25.461-19.245-40.313-25.324    c-3.831-1.569-8.212,0.267-9.782,4.1c-0.028,0.068-0.046,0.137-0.072,0.205c-1.423,3.784,0.406,8.036,4.173,9.577    c13,5.322,24.864,12.734,35.368,22.068l-56.48,56.479c0.442-3.253,0.69-6.567,0.69-9.94c0-36.721-27.054-67.24-62.276-72.677    c17.762-5.272,36.716-6.626,55.459-3.592c4.013,0.647,7.801-2.026,8.558-6.001c0.013-0.069,0.032-0.135,0.044-0.204    c0.662-4.089-2.116-7.94-6.205-8.603c-22.401-3.627-45.07-1.658-66.1,5.27c15-15,29.189-29.188,42.619-42.617    c46.8-46.713,121.798-48.394,170.637-5.058L213.496,339.3z M454.984,74.612c-6.171-4.352-12.686-8.196-19.476-11.486    c-3.73-1.809-8.214-0.248-10.021,3.479c-0.032,0.066-0.055,0.134-0.085,0.2c-1.657,3.687-0.097,8.045,3.564,9.82    c8.276,4.009,16.089,8.949,23.293,14.701c-2.798,8.813-7.674,16.892-14.401,23.617l-50.479,50.478    c-20.892-18.814-46.489-30.703-74.501-34.478c-4.106-0.552-7.882,2.326-8.435,6.431c-0.01,0.073-0.01,0.145-0.018,0.218    c-0.425,4.02,2.417,7.673,6.449,8.217c24.727,3.333,47.345,13.756,65.88,30.237l-76.311,76.309    c-38.107-34.254-90.675-43.823-136.866-28.712c15.421-15.421,29.596-29.595,42.637-42.636    c20.545-20.466,47.722-33.18,76.555-35.804c4.051-0.369,7.048-3.896,6.798-7.929c-0.004-0.074-0.002-0.146-0.009-0.22    c-0.376-4.125-4.04-7.164-8.148-6.79c-10.553,0.961-20.905,3.135-30.867,6.415c13.767-13.767,25.725-25.725,36.114-36.114    c30.422-30.344,73.625-42.788,115.607-33.284c3.972,0.896,7.912-1.536,8.914-5.456c0.018-0.069,0.041-0.134,0.057-0.203    c0.915-4.04-1.619-8.056-5.658-8.971c-25.21-5.706-50.813-4.34-74.396,3.386c17.991-17.996,22.643-22.654,23.884-23.906    c11.072-11.039,25.772-17.126,41.406-17.126c32.279,0,58.54,26.261,58.54,58.54C455.01,73.902,454.99,74.256,454.984,74.612z" fill="#3d2a20"/></g><g transform="matrix(0.10638546943664551 0 0 0.10638546943664551 62.5 150)" id="L1_323"><path d="M149.353,325.087l-7.72-7.72L16.6,442.4c-1.032,1.031-1.6,2.402-1.6,3.86   c0,1.458,0.567,2.83,1.599,3.86c1.032,1.032,2.402,1.6,3.861,1.6c1.458,0,2.828-0.568,3.859-1.599L149.353,325.087z" fill="#e0dcd7"/><path d="M198.733,342.461c4.875,0,9.544-1.334,13.596-3.821c-0.674-0.273-1.344-0.562-2.008-0.872   l-50.731-23.656l20.715,20.716C185.228,339.75,191.772,342.461,198.733,342.461z" fill="#ffcb59"/><path d="M241.825,278.681l-68.71-32.326c-0.003-0.001-18.322-8.544-18.322-8.544   c-3.485-1.625-7.185-2.45-10.992-2.45c-10.098,0-19.378,5.91-23.642,15.055c-2.942,6.31-3.252,13.387-0.871,19.928   s7.167,11.765,13.477,14.707l83.897,39.122c3.485,1.625,7.184,2.45,10.992,2.45c10.097,0,19.377-5.91,23.643-15.056   C256.799,299.768,252.72,285.703,241.825,278.681z M181.037,275.073c-1.274,2.724-3.977,4.323-6.798,4.323   c-1.064,0-2.146-0.228-3.174-0.709l-29.003-13.571c-3.752-1.755-5.37-6.22-3.614-9.972c1.755-3.751,6.217-5.37,9.972-3.614   l29.003,13.571C181.175,266.857,182.793,271.321,181.037,275.073z" fill="#ffeabd"/><path d="M177.423,265.102L148.42,251.53c-3.755-1.755-8.217-0.137-9.972,3.614   c-1.756,3.752-0.138,8.216,3.614,9.972l29.003,13.571c1.028,0.481,2.109,0.709,3.174,0.709c2.821,0,5.523-1.6,6.798-4.323   C182.793,271.321,181.175,266.857,177.423,265.102z" fill="#ffffff"/><path d="M292.135,228.366l-68.706-32.324c-0.003-0.001-18.322-8.544-18.322-8.544   c-3.485-1.625-7.185-2.45-10.992-2.45c-10.098,0-19.378,5.91-23.642,15.055c-5.503,11.799-1.424,25.865,9.471,32.887l68.71,32.326   c0.003,0.001,18.322,8.544,18.322,8.544c3.485,1.625,7.184,2.45,10.992,2.45c10.097,0,19.377-5.91,23.643-15.056   C307.113,249.454,303.033,235.388,292.135,228.366z M231.353,224.755c-1.274,2.725-3.978,4.325-6.799,4.325   c-1.064,0-2.145-0.228-3.172-0.708l-29.022-13.571c-3.752-1.754-5.372-6.219-3.617-9.971c1.755-3.752,6.221-5.371,9.971-3.617   l29.022,13.571C231.487,216.539,233.107,221.003,231.353,224.755z" fill="#e7453f"/><path d="M227.735,214.785l-29.022-13.571c-3.75-1.753-8.216-0.135-9.971,3.617   c-1.755,3.752-0.135,8.216,3.617,9.971l29.022,13.571c1.027,0.48,2.107,0.708,3.172,0.708c2.821,0,5.524-1.601,6.799-4.325   C233.107,221.003,231.487,216.539,227.735,214.785z" fill="#ffffff"/><path d="M342.398,178.018l-68.656-32.29c-0.003-0.001-18.322-8.544-18.322-8.544   c-3.486-1.625-7.185-2.45-10.992-2.45c-10.098,0-19.378,5.91-23.643,15.055c-5.502,11.799-1.423,25.864,9.473,32.888l68.709,32.326   c0.003,0.001,18.322,8.544,18.322,8.544c3.485,1.625,7.184,2.45,10.992,2.45c10.097,0,19.377-5.91,23.643-15.056   C357.435,199.122,353.334,185.029,342.398,178.018z M281.662,174.447c-1.274,2.724-3.977,4.324-6.798,4.324   c-1.064,0-2.146-0.228-3.174-0.708l-29.018-13.576c-3.751-1.755-5.37-6.22-3.614-9.972c1.755-3.751,6.217-5.371,9.972-3.615   l29.018,13.576C281.799,166.231,283.418,170.695,281.662,174.447z" fill="#03e6ff"/><path d="M278.048,164.475l-29.018-13.576c-3.755-1.756-8.217-0.136-9.972,3.615   c-1.756,3.752-0.137,8.216,3.614,9.972l29.018,13.576c1.028,0.481,2.109,0.708,3.174,0.708c2.821,0,5.523-1.6,6.798-4.324   C283.418,170.695,281.799,166.231,278.048,164.475z" fill="#ffffff"/><path d="M392.711,127.705l-68.656-32.291c-0.003-0.001-18.321-8.543-18.321-8.543   c-3.485-1.625-7.185-2.45-10.992-2.45c-10.098,0-19.378,5.91-23.642,15.055c-5.503,11.799-1.424,25.864,9.471,32.887l71.207,33.49   l15.825,7.379c3.485,1.625,7.184,2.45,10.992,2.45c10.098,0,19.377-5.91,23.643-15.056   C407.749,148.808,403.647,134.715,392.711,127.705z M331.942,124.172c-1.276,2.719-3.977,4.314-6.794,4.314   c-1.068,0-2.152-0.229-3.183-0.713l-28.972-13.602c-3.749-1.76-5.362-6.227-3.602-9.977c1.761-3.749,6.23-5.36,9.977-3.602   l28.972,13.602C332.09,115.956,333.703,120.423,331.942,124.172z" fill="#a3e175"/><path d="M328.341,114.196l-28.972-13.602c-3.746-1.759-8.216-0.147-9.977,3.602   c-1.761,3.75-0.147,8.216,3.602,9.977l28.972,13.602c1.03,0.484,2.114,0.713,3.183,0.713c2.817,0,5.518-1.596,6.794-4.314   C333.703,120.423,332.09,115.956,328.341,114.196z" fill="#ffffff"/><path d="M439.944,75.679l-83.897-39.122c-3.486-1.626-7.185-2.45-10.992-2.45   c-10.098,0-19.378,5.91-23.642,15.056c-5.502,11.799-1.424,25.864,9.471,32.887l71.207,33.491l15.825,7.379   c3.485,1.625,7.184,2.45,10.992,2.45c10.097,0,19.377-5.91,23.643-15.056C458.623,97.289,452.968,81.753,439.944,75.679z    M382.324,73.78c-1.272,2.729-3.978,4.333-6.803,4.333c-1.062,0-2.139-0.227-3.164-0.705L343.296,63.86   c-3.754-1.75-5.379-6.212-3.629-9.966c1.751-3.754,6.213-5.378,9.967-3.628l29.062,13.549   C382.449,65.564,384.074,70.026,382.324,73.78z" fill="#ffcb59"/><path d="M378.695,63.814l-29.062-13.549c-3.754-1.75-8.216-0.126-9.967,3.628   c-1.75,3.754-0.125,8.216,3.629,9.966l29.062,13.549c1.025,0.478,2.103,0.705,3.164,0.705c2.825,0,5.53-1.604,6.803-4.333   C384.074,70.026,382.449,65.564,378.695,63.814z" fill="#ffffff"/><path d="M362.387,22.962l50.732,23.657l-20.716-20.717c-4.922-4.922-11.467-7.633-18.428-7.633   c-4.875,0-9.544,1.334-13.596,3.821C361.053,22.363,361.723,22.653,362.387,22.962z" fill="#ffeabd"/><path d="M458.053,70.351c-0.031-0.032-0.057-0.066-0.088-0.098l-54.954-54.957   C395.255,7.541,384.943,3.27,373.976,3.27c-10.969,0-21.28,4.271-29.036,12.027c-1.252,1.252-2.414,2.592-3.492,3.988   c-14.474,1.288-27.423,10.229-33.629,23.538c-4.221,9.05-4.863,18.95-2.431,28.004c-3.458-0.936-7.02-1.407-10.646-1.407   c-15.901,0-30.52,9.31-37.236,23.716c-4.221,9.051-4.864,18.95-2.431,28.004c-3.458-0.936-7.02-1.407-10.646-1.407   c-15.903,0-30.519,9.309-37.236,23.716c-4.221,9.05-4.863,18.95-2.431,28.004c-3.458-0.936-7.02-1.407-10.646-1.407   c-15.902,0-30.519,9.309-37.236,23.716c-4.221,9.051-4.864,18.95-2.431,28.004c-3.458-0.936-7.02-1.407-10.646-1.407   c-15.902,0-30.519,9.309-37.236,23.716c-4.636,9.94-5.123,21.091-1.371,31.398c2.166,5.952,5.603,11.205,10.029,15.479   l15.804,15.805L5.993,431.793C2.128,435.657,0,440.795,0,446.26c0,5.465,2.128,10.604,5.992,14.467   c3.864,3.864,9.002,5.993,14.468,5.993c5.465,0,10.603-2.128,14.467-5.993l125.032-125.033l9.739,9.74   c7.756,7.756,18.067,12.027,29.035,12.027s21.279-4.271,29.036-12.027c1.253-1.253,2.413-2.592,3.491-3.989   c14.473-1.288,27.424-10.229,33.63-23.539c4.221-9.05,4.864-18.95,2.431-28.004c3.458,0.936,7.019,1.407,10.646,1.407   c15.901,0,30.519-9.309,37.236-23.716c4.221-9.051,4.863-18.95,2.431-28.004c3.458,0.936,7.019,1.407,10.646,1.407   c15.901,0,30.519-9.309,37.236-23.716c4.221-9.051,4.864-18.95,2.431-28.004c3.458,0.935,7.019,1.407,10.646,1.407   c15.902,0,30.52-9.31,37.237-23.717c4.221-9.05,4.864-18.95,2.431-28.004c3.458,0.936,7.019,1.407,10.646,1.407   c15.901,0,30.519-9.309,37.237-23.717C473.611,100.64,469.825,82.219,458.053,70.351z M428.908,125.369   c-3.809,0-7.507-0.824-10.992-2.45l-15.825-7.379L330.884,82.05c-10.895-7.023-14.973-21.088-9.471-32.887   c4.264-9.146,13.544-15.056,23.642-15.056c3.808,0,7.506,0.825,10.992,2.45l83.897,39.122c13.023,6.073,18.679,21.61,12.606,34.634   C448.285,119.46,439.005,125.369,428.908,125.369z M378.597,175.683c-3.811,0-7.509-0.824-10.994-2.45l-15.825-7.379l-71.207-33.49   c-10.895-7.023-14.974-21.088-9.471-32.887c4.264-9.146,13.544-15.055,23.642-15.055c3.808,0,7.507,0.824,10.992,2.45l18.318,8.542   c0.003,0.001,68.659,32.292,68.659,32.292c10.937,7.011,15.038,21.104,9.526,32.922   C397.972,169.773,388.692,175.683,378.597,175.683z M328.281,225.996c-3.809,0-7.507-0.824-10.992-2.45l-18.319-8.542   c-0.003-0.001-68.712-32.327-68.712-32.327c-10.896-7.024-14.975-21.089-9.473-32.888c4.265-9.146,13.545-15.055,23.643-15.055   c3.808,0,7.506,0.824,10.992,2.45l18.319,8.542c0.002,0.001,68.658,32.292,68.658,32.292c10.937,7.011,15.037,21.104,9.526,32.922   C347.658,220.087,338.378,225.996,328.281,225.996z M277.968,276.31c-3.809,0-7.507-0.824-10.992-2.45l-18.319-8.542   c-0.003-0.001-68.712-32.327-68.712-32.327c-10.896-7.023-14.974-21.088-9.471-32.887c4.264-9.146,13.544-15.055,23.642-15.055   c3.808,0,7.507,0.824,10.992,2.45l18.319,8.542c0.003,0.001,68.709,32.326,68.709,32.326c10.898,7.023,14.978,21.089,9.476,32.888   C297.345,270.4,288.064,276.31,277.968,276.31z M251.297,311.567c-4.266,9.146-13.546,15.056-23.643,15.056   c-3.809,0-7.507-0.824-10.992-2.45l-83.897-39.122c-6.31-2.942-11.096-8.165-13.477-14.707s-2.071-13.619,0.871-19.928   c4.264-9.146,13.544-15.055,23.642-15.055c3.808,0,7.507,0.824,10.992,2.45l18.319,8.542c0.002,0.001,68.712,32.327,68.712,32.327   C252.72,285.703,256.799,299.768,251.297,311.567z M16.599,450.12c-1.031-1.031-1.599-2.402-1.599-3.86   c0-1.458,0.567-2.829,1.6-3.86l125.033-125.033l7.72,7.72L24.319,450.121c-1.031,1.031-2.401,1.599-3.859,1.599   C19.001,451.72,17.631,451.152,16.599,450.12z M159.591,314.112l50.731,23.656c0.664,0.31,1.334,0.599,2.008,0.872   c-4.053,2.487-8.721,3.821-13.596,3.821c-6.961,0-13.506-2.711-18.428-7.633L159.591,314.112z M392.403,25.902l20.716,20.717   l-50.732-23.657c-0.664-0.31-1.334-0.599-2.008-0.872c4.052-2.487,8.721-3.821,13.596-3.821   C380.937,18.27,387.481,20.98,392.403,25.902z" fill="#3d2a20"/></g><g transform="matrix(0.12765957415103912 0 0 0.12765957415103912 221 149)" id="L1_324"><path d="M82.056,375.824c0-4.142,3.357-7.5,7.5-7.5h7.794c1.254,0,2.433,0.312,3.471,0.855l40.797-40.797   C127.678,314.441,120,295.906,120,276.191c0-19.715,7.678-38.25,21.618-52.19L224,141.619C237.941,127.678,256.477,120,276.191,120   c19.715,0,38.25,7.678,52.19,21.618l43.989-43.989c-0.397-0.914-0.62-1.922-0.62-2.983v-7.795c0-4.142,3.357-7.5,7.5-7.5   c3.082,0,5.727,1.86,6.88,4.517l16.497-16.497C368.856,33.599,323.953,15,276.192,15c-47.762,0-92.664,18.599-126.437,52.372   l-82.384,82.383c-69.718,69.718-69.718,183.156,0,252.873l19.725-19.725C84.164,381.884,82.056,379.103,82.056,375.824z    M179.561,145.494c0,4.142-3.357,7.5-7.5,7.5s-7.5-3.358-7.5-7.5v-7.795c0-4.142,3.357-7.5,7.5-7.5s7.5,3.358,7.5,7.5V145.494z    M310.063,51.871c2.93-2.929,7.678-2.929,10.607,0l5.512,5.512c2.929,2.929,2.929,7.678,0,10.606   c-1.465,1.464-3.385,2.197-5.304,2.197s-3.839-0.732-5.304-2.197l-5.512-5.512C307.134,59.549,307.134,54.8,310.063,51.871z    M282.425,78.718h7.795c4.143,0,7.5,3.358,7.5,7.5s-3.357,7.5-7.5,7.5h-7.795c-4.143,0-7.5-3.358-7.5-7.5   S278.282,78.718,282.425,78.718z M219.218,58.008c2.93-2.929,7.678-2.929,10.607,0l5.512,5.512c2.929,2.929,2.929,7.678,0,10.606   c-1.465,1.464-3.385,2.197-5.304,2.197s-3.839-0.732-5.304-2.197l-5.512-5.512C216.289,65.686,216.289,60.937,219.218,58.008z    M175.304,63.251c0-4.142,3.357-7.5,7.5-7.5s7.5,3.358,7.5,7.5v7.794c0,4.142-3.357,7.5-7.5,7.5s-7.5-3.358-7.5-7.5V63.251z    M158.019,112.342l5.512-5.511c2.928-2.929,7.677-2.927,10.606,0c2.929,2.929,2.929,7.678-0.001,10.607l-5.512,5.511   c-1.464,1.464-3.384,2.196-5.303,2.196c-1.92,0-3.839-0.732-5.304-2.197C155.089,120.02,155.089,115.271,158.019,112.342z    M102.178,320.168c0,4.142-3.357,7.5-7.5,7.5s-7.5-3.358-7.5-7.5v-7.794c0-4.142,3.357-7.5,7.5-7.5s7.5,3.358,7.5,7.5V320.168z    M121.12,193.854c-1.465,1.464-3.385,2.197-5.304,2.197s-3.839-0.732-5.304-2.197l-5.512-5.512c-2.929-2.929-2.929-7.678,0-10.606   c2.93-2.929,7.678-2.929,10.607,0l5.512,5.512C124.049,186.177,124.049,190.926,121.12,193.854z M102.546,143.803   c0-4.142,3.357-7.5,7.5-7.5s7.5,3.358,7.5,7.5v7.794c0,4.142-3.357,7.5-7.5,7.5s-7.5-3.358-7.5-7.5V143.803z M100.771,228.75   c2.929,2.929,2.929,7.678,0,10.606l-5.512,5.512c-1.465,1.464-3.385,2.197-5.304,2.197s-3.839-0.732-5.304-2.197   c-2.929-2.929-2.929-7.678,0-10.606l5.512-5.512C93.094,225.821,97.842,225.821,100.771,228.75z M50.698,308.514h-7.795   c-4.143,0-7.5-3.358-7.5-7.5s3.357-7.5,7.5-7.5h7.795c4.143,0,7.5,3.358,7.5,7.5S54.841,308.514,50.698,308.514z M73.705,202.481   c-4.143,0-7.5-3.358-7.5-7.5s3.357-7.5,7.5-7.5h7.794c4.143,0,7.5,3.358,7.5,7.5s-3.357,7.5-7.5,7.5H73.705z" fill="#ec6a65"/><path d="M402.628,320.245c69.718-69.718,69.718-183.156,0-252.873l-16.497,16.497   c0.397,0.915,0.62,1.922,0.62,2.983v7.795c0,4.142-3.357,7.5-7.5,7.5c-3.082,0-5.727-1.86-6.88-4.517l-43.989,43.989   C342.322,155.559,350,174.094,350,193.809c0,19.715-7.678,38.25-21.618,52.19L246,328.381C232.059,342.322,213.523,350,193.809,350   c-19.715,0-38.25-7.678-52.19-21.618l-40.797,40.797c2.393,1.253,4.029,3.756,4.029,6.645c0,4.142-3.357,7.5-7.5,7.5h-7.794   c-0.863,0-1.687-0.153-2.459-0.421l-19.725,19.725C101.144,436.401,146.047,455,193.808,455c47.762,0,92.664-18.599,126.437-52.372   L402.628,320.245z M399.878,289.561l-5.512,5.512c-1.465,1.464-3.385,2.197-5.304,2.197s-3.839-0.732-5.304-2.197   c-2.929-2.929-2.929-7.678,0-10.606l5.512-5.512c2.93-2.929,7.678-2.929,10.607,0C402.807,281.883,402.807,286.632,399.878,289.561   z M426.043,189.645h7.794c4.143,0,7.5,3.358,7.5,7.5s-3.357,7.5-7.5,7.5h-7.794c-4.143,0-7.5-3.358-7.5-7.5   S421.9,189.645,426.043,189.645z M402.785,133.526c0-4.142,3.357-7.5,7.5-7.5s7.5,3.358,7.5,7.5v7.795c0,4.142-3.357,7.5-7.5,7.5   s-7.5-3.358-7.5-7.5V133.526z M396.876,228.22c0-4.142,3.357-7.5,7.5-7.5s7.5,3.358,7.5,7.5v7.795c0,4.142-3.357,7.5-7.5,7.5   s-7.5-3.358-7.5-7.5V228.22z M376.968,127.208l5.512-5.511c2.929-2.929,7.678-2.927,10.606,0c2.929,2.929,2.929,7.678-0.001,10.607   l-5.512,5.511c-1.464,1.464-3.384,2.196-5.303,2.196c-1.92,0-3.839-0.732-5.304-2.197   C374.038,134.886,374.038,130.138,376.968,127.208z M368.197,184.97c2.93-2.929,7.678-2.929,10.607,0l5.512,5.512   c2.929,2.929,2.929,7.678,0,10.606c-1.465,1.464-3.385,2.197-5.304,2.197s-3.839-0.732-5.304-2.197l-5.512-5.512   C365.269,192.648,365.269,187.899,368.197,184.97z M354.264,266.111c2.93-2.929,7.678-2.929,10.607,0l5.512,5.512   c2.929,2.929,2.929,7.678,0,10.606c-1.465,1.464-3.385,2.197-5.304,2.197s-3.839-0.732-5.304-2.197l-5.512-5.512   C351.335,273.789,351.335,269.04,354.264,266.111z M331.094,284.593h7.795c4.143,0,7.5,3.358,7.5,7.5s-3.357,7.5-7.5,7.5h-7.795   c-4.143,0-7.5-3.358-7.5-7.5S326.951,284.593,331.094,284.593z M136.641,369.893l-5.512,5.511   c-1.464,1.464-3.384,2.196-5.303,2.196c-1.92,0-3.839-0.732-5.304-2.197c-2.929-2.929-2.929-7.678,0.001-10.607l5.512-5.511   c2.929-2.928,7.678-2.928,10.606,0C139.57,362.215,139.57,366.964,136.641,369.893z M185.386,427.751h-7.795   c-4.143,0-7.5-3.358-7.5-7.5s3.357-7.5,7.5-7.5h7.795c4.143,0,7.5,3.358,7.5,7.5S189.528,427.751,185.386,427.751z    M231.384,386.475c-1.465,1.464-3.385,2.197-5.304,2.197s-3.839-0.732-5.304-2.197l-5.512-5.512c-2.929-2.929-2.929-7.678,0-10.606   c2.93-2.929,7.678-2.929,10.607,0l5.512,5.512C234.313,378.797,234.313,383.546,231.384,386.475z M292.694,359.917l-5.511,5.511   c-1.465,1.464-3.385,2.197-5.304,2.197s-3.839-0.732-5.303-2.196c-2.93-2.929-2.93-7.678-0.001-10.607l5.511-5.511   c2.93-2.929,7.679-2.929,10.606,0C295.623,352.24,295.623,356.988,292.694,359.917z M318.693,371.536c0,4.142-3.357,7.5-7.5,7.5   s-7.5-3.358-7.5-7.5v-7.794c0-4.142,3.357-7.5,7.5-7.5s7.5,3.358,7.5,7.5V371.536z" fill="#ffcb59"/><path d="M413.235,56.765C376.63,20.16,327.96,0,276.192,0c-51.769,0-100.438,20.16-137.044,56.765   l-82.384,82.383c-75.565,75.566-75.565,198.521,0,274.086C93.37,449.84,142.04,470,193.808,470   c51.769,0,100.438-20.16,137.044-56.765l82.384-82.383C488.801,255.286,488.801,132.331,413.235,56.765z M67.372,402.628   c-69.718-69.718-69.718-183.156,0-252.874l82.384-82.383C183.528,33.599,228.431,15,276.192,15   c47.761,0,92.664,18.599,126.436,52.372c69.718,69.718,69.718,183.156,0,252.874l-82.384,82.383   C286.472,436.401,241.569,455,193.808,455C146.047,455,101.144,436.401,67.372,402.628z" fill="#3d2a20"/><path d="M224,141.619l-82.382,82.382c-13.94,13.94-21.618,32.475-21.618,52.19   c0,19.715,7.678,38.25,21.618,52.19C155.559,342.322,174.094,350,193.809,350c19.715,0,38.25-7.678,52.191-21.618l82.382-82.382   c13.94-13.94,21.618-32.475,21.618-52.19c0-19.715-7.678-38.25-21.618-52.19C314.441,127.678,295.906,120,276.191,120   C256.477,120,237.941,127.678,224,141.619z M152.226,317.775C141.117,306.667,135,291.899,135,276.191   c0-15.708,6.117-30.476,17.226-41.583l82.382-82.382C245.715,141.118,260.482,135,276.191,135c15.708,0,30.477,6.117,41.583,17.225   C328.883,163.333,335,178.101,335,193.809c0,15.708-6.117,30.476-17.226,41.583l-82.382,82.382   C224.285,328.882,209.518,335,193.809,335C178.101,335,163.332,328.882,152.226,317.775z" fill="#3d2a20"/><path d="M315.574,67.989c1.465,1.464,3.385,2.197,5.304,2.197s3.839-0.732,5.304-2.197   c2.929-2.929,2.929-7.678,0-10.606l-5.512-5.512c-2.93-2.929-7.678-2.929-10.607,0c-2.929,2.929-2.929,7.678,0,10.606   L315.574,67.989z" fill="#ffffff"/><path d="M379.251,79.352c-4.143,0-7.5,3.358-7.5,7.5v7.795c0,1.061,0.223,2.068,0.62,2.983   c1.154,2.657,3.798,4.517,6.88,4.517c4.143,0,7.5-3.358,7.5-7.5v-7.795c0-1.061-0.223-2.068-0.62-2.983   C384.978,81.212,382.333,79.352,379.251,79.352z" fill="#ffffff"/><path d="M282.425,93.718h7.795c4.143,0,7.5-3.358,7.5-7.5s-3.357-7.5-7.5-7.5h-7.795   c-4.143,0-7.5,3.358-7.5,7.5S278.282,93.718,282.425,93.718z" fill="#ffffff"/><path d="M105.001,177.736c-2.929,2.929-2.929,7.678,0,10.606l5.512,5.512   c1.465,1.464,3.385,2.197,5.304,2.197s3.839-0.732,5.304-2.197c2.929-2.929,2.929-7.678,0-10.606l-5.512-5.512   C112.679,174.808,107.931,174.808,105.001,177.736z" fill="#ffffff"/><path d="M172.061,130.199c-4.143,0-7.5,3.358-7.5,7.5v7.795c0,4.142,3.357,7.5,7.5,7.5s7.5-3.358,7.5-7.5   v-7.795C179.561,133.557,176.203,130.199,172.061,130.199z" fill="#ffffff"/><path d="M126.035,359.286l-5.512,5.511c-2.93,2.929-2.93,7.678-0.001,10.607   c1.465,1.464,3.384,2.197,5.304,2.197c1.919,0,3.839-0.732,5.303-2.196l5.512-5.511c2.93-2.929,2.93-7.678,0.001-10.607   C133.713,356.358,128.964,356.357,126.035,359.286z" fill="#ffffff"/><path d="M89.556,368.324c-4.143,0-7.5,3.358-7.5,7.5c0,3.28,2.108,6.06,5.041,7.079   c0.771,0.268,1.596,0.421,2.459,0.421h7.794c4.143,0,7.5-3.358,7.5-7.5c0-2.889-1.635-5.392-4.029-6.645   c-1.039-0.544-2.218-0.855-3.471-0.855H89.556z" fill="#ffffff"/><path d="M404.376,243.515c4.143,0,7.5-3.358,7.5-7.5v-7.795c0-4.142-3.357-7.5-7.5-7.5s-7.5,3.358-7.5,7.5   v7.795C396.876,240.157,400.233,243.515,404.376,243.515z" fill="#ffffff"/><path d="M331.094,299.593h7.795c4.143,0,7.5-3.358,7.5-7.5s-3.357-7.5-7.5-7.5h-7.795   c-4.143,0-7.5,3.358-7.5,7.5S326.951,299.593,331.094,299.593z" fill="#ffffff"/><path d="M389.271,278.955l-5.512,5.512c-2.929,2.929-2.929,7.678,0,10.606   c1.465,1.464,3.385,2.197,5.304,2.197s3.839-0.732,5.304-2.197l5.512-5.512c2.929-2.929,2.929-7.678,0-10.606   C396.948,276.026,392.2,276.026,389.271,278.955z" fill="#ffffff"/><path d="M359.775,282.229c1.465,1.464,3.385,2.197,5.304,2.197s3.839-0.732,5.304-2.197   c2.929-2.929,2.929-7.678,0-10.606l-5.512-5.512c-2.93-2.929-7.678-2.929-10.607,0c-2.929,2.929-2.929,7.678,0,10.606   L359.775,282.229z" fill="#ffffff"/><path d="M311.193,356.241c-4.143,0-7.5,3.358-7.5,7.5v7.794c0,4.142,3.357,7.5,7.5,7.5s7.5-3.358,7.5-7.5   v-7.794C318.693,359.599,315.336,356.241,311.193,356.241z" fill="#ffffff"/><path d="M185.386,412.751h-7.795c-4.143,0-7.5,3.358-7.5,7.5s3.357,7.5,7.5,7.5h7.795   c4.143,0,7.5-3.358,7.5-7.5S189.528,412.751,185.386,412.751z" fill="#ffffff"/><path d="M282.087,349.311l-5.511,5.511c-2.929,2.929-2.929,7.678,0.001,10.607   c1.464,1.464,3.384,2.196,5.303,2.196s3.839-0.732,5.304-2.197l5.511-5.511c2.929-2.929,2.929-7.678-0.001-10.607   C289.766,346.382,285.017,346.382,282.087,349.311z" fill="#ffffff"/><path d="M225.872,370.357c-2.93-2.929-7.678-2.929-10.607,0c-2.929,2.929-2.929,7.678,0,10.606l5.512,5.512   c1.465,1.464,3.385,2.197,5.304,2.197s3.839-0.732,5.304-2.197c2.929-2.929,2.929-7.678,0-10.606L225.872,370.357z" fill="#ffffff"/><path d="M94.678,304.874c-4.143,0-7.5,3.358-7.5,7.5v7.794c0,4.142,3.357,7.5,7.5,7.5s7.5-3.358,7.5-7.5   v-7.794C102.178,308.231,98.82,304.874,94.678,304.874z" fill="#ffffff"/><path d="M50.698,293.514h-7.795c-4.143,0-7.5,3.358-7.5,7.5s3.357,7.5,7.5,7.5h7.795   c4.143,0,7.5-3.358,7.5-7.5S54.841,293.514,50.698,293.514z" fill="#ffffff"/><path d="M84.652,244.868c1.465,1.464,3.385,2.197,5.304,2.197s3.839-0.732,5.304-2.197l5.512-5.512   c2.929-2.929,2.929-7.678,0-10.606c-2.93-2.929-7.678-2.929-10.607,0l-5.512,5.512C81.724,237.19,81.724,241.939,84.652,244.868z" fill="#ffffff"/><path d="M224.729,74.126c1.465,1.464,3.385,2.197,5.304,2.197s3.839-0.732,5.304-2.197   c2.929-2.929,2.929-7.678,0-10.606l-5.512-5.512c-2.93-2.929-7.678-2.929-10.607,0c-2.929,2.929-2.929,7.678,0,10.606   L224.729,74.126z" fill="#ffffff"/><path d="M182.804,78.545c4.143,0,7.5-3.358,7.5-7.5v-7.794c0-4.142-3.357-7.5-7.5-7.5s-7.5,3.358-7.5,7.5   v7.794C175.304,75.188,178.661,78.545,182.804,78.545z" fill="#ffffff"/><path d="M110.046,159.097c4.143,0,7.5-3.358,7.5-7.5v-7.794c0-4.142-3.357-7.5-7.5-7.5s-7.5,3.358-7.5,7.5   v7.794C102.546,155.739,105.903,159.097,110.046,159.097z" fill="#ffffff"/><path d="M163.321,125.146c1.919,0,3.839-0.732,5.303-2.196l5.512-5.511c2.93-2.929,2.93-7.678,0.001-10.607   c-2.93-2.928-7.679-2.929-10.606,0l-5.512,5.511c-2.93,2.929-2.93,7.678-0.001,10.607   C159.482,124.413,161.401,125.146,163.321,125.146z" fill="#ffffff"/><path d="M88.999,194.981c0-4.142-3.357-7.5-7.5-7.5h-7.794c-4.143,0-7.5,3.358-7.5,7.5s3.357,7.5,7.5,7.5   h7.794C85.642,202.481,88.999,199.124,88.999,194.981z" fill="#ffffff"/><path d="M410.285,148.821c4.143,0,7.5-3.358,7.5-7.5v-7.795c0-4.142-3.357-7.5-7.5-7.5s-7.5,3.358-7.5,7.5   v7.795C402.785,145.463,406.143,148.821,410.285,148.821z" fill="#ffffff"/><path d="M426.043,204.645h7.794c4.143,0,7.5-3.358,7.5-7.5s-3.357-7.5-7.5-7.5h-7.794   c-4.143,0-7.5,3.358-7.5,7.5S421.9,204.645,426.043,204.645z" fill="#ffffff"/><path d="M382.271,140.012c1.919,0,3.839-0.732,5.303-2.196l5.512-5.511c2.93-2.929,2.93-7.678,0.001-10.607   c-2.929-2.928-7.678-2.929-10.606,0l-5.512,5.511c-2.93,2.929-2.93,7.678-0.001,10.607   C378.432,139.28,380.351,140.012,382.271,140.012z" fill="#ffffff"/><path d="M373.709,201.088c1.465,1.464,3.385,2.197,5.304,2.197s3.839-0.732,5.304-2.197   c2.929-2.929,2.929-7.678,0-10.606l-5.512-5.512c-2.93-2.929-7.678-2.929-10.607,0c-2.929,2.929-2.929,7.678,0,10.606   L373.709,201.088z" fill="#ffffff"/></g><g transform="matrix(0.12765957415103912 0 0 0.12765957415103912 103 243.0000027115193)" id="L1_325"><path d="M284.515,267.563c0-23.073,18.771-41.844,41.845-41.844c8.997,0,17.333,2.864,24.164,7.715   c-4.38-10.432-13.711-19.259-24.833-19.259c-4.142,0-7.5-3.358-7.5-7.5s3.358-7.5,7.5-7.5c0.048,0,0.095,0.004,0.143,0.004   c0.12-42.009,0.207-98.774,0-102.8c-0.292-3.544,1.951-6.817,5.378-7.815c12.893-3.754,21.556-15.576,21.556-29.417   c0-16.897-13.747-30.645-30.645-30.645c-4.241,0-8.408,0.891-12.245,2.566c7.176,7.178,13.27,15.308,18.156,24.301   c1.977,3.64,0.629,8.193-3.01,10.17c-1.137,0.618-2.364,0.911-3.573,0.911c-2.661,0-5.238-1.419-6.597-3.921   c-5.69-10.474-13.275-19.598-22.535-27.142C276.186,22.242,255.859,15,235,15c-21.058,0-41.58,7.371-57.785,20.755   c-9.057,7.48-16.48,16.487-22.069,26.775c-1.359,2.502-3.937,3.921-6.597,3.921c-1.209,0-2.436-0.293-3.573-0.911   c-3.64-1.977-4.987-6.531-3.01-10.17c4.88-8.983,10.96-17.127,18.139-24.309c-3.832-1.669-7.994-2.558-12.228-2.558   c-16.897,0-30.645,13.747-30.645,30.645c0,13.841,8.663,25.663,21.556,29.417c3.428,0.998,5.67,4.271,5.378,7.815   c-0.207,4.026-0.12,60.792,0,102.8c0.048,0,0.095-0.004,0.143-0.004c4.142,0,7.5,3.358,7.5,7.5s-3.358,7.5-7.5,7.5   c-11.122,0-20.452,8.827-24.833,19.259c6.831-4.851,15.167-7.715,24.164-7.715c23.073,0,41.845,18.771,41.845,41.844   c0,22.889-18.475,41.534-41.295,41.831v23.11c0.04,0,0.079-0.003,0.119-0.003c4.142,0,7.5,3.358,7.5,7.5s-3.358,7.5-7.5,7.5   c-15.17,0-27.513,12.342-27.513,27.513v8.457c9.151-9.072,21.734-14.686,35.607-14.686c25.356,0,46.412,18.745,50.048,43.104   h65.097c3.636-24.359,24.692-43.104,50.048-43.104c13.873,0,26.456,5.614,35.607,14.686v-8.457   c0-15.171-12.342-27.513-27.513-27.513c-4.142,0-7.5-3.358-7.5-7.5s3.358-7.5,7.5-7.5c0.04,0,0.079,0.003,0.119,0.003v-23.11   C302.99,309.097,284.515,290.452,284.515,267.563z M235,115.028c4.142,0,7.5,3.358,7.5,7.5v18.288   c5.556-1.198,10.798-3.708,15.23-7.36c3.197-2.634,7.924-2.178,10.558,1.019c2.634,3.197,2.178,7.924-1.019,10.558   c-9.069,7.473-20.529,11.588-32.27,11.588s-23.201-4.115-32.27-11.588c-3.197-2.634-3.653-7.361-1.019-10.558   c2.634-3.196,7.361-3.653,10.558-1.019c4.432,3.652,9.675,6.163,15.23,7.36v-18.288C227.5,118.386,230.858,115.028,235,115.028z    M163.364,81.188c7.54-21.941,25.14-39.542,47.082-47.082c3.917-1.346,8.184,0.738,9.53,4.655c1.346,3.917-0.738,8.184-4.655,9.53   c-17.602,6.049-31.722,20.169-37.771,37.771c-1.068,3.11-3.979,5.064-7.092,5.064c-0.809,0-1.63-0.131-2.438-0.409   C164.103,89.372,162.018,85.105,163.364,81.188z M235,383.786c-21.192,0-38.433-17.241-38.433-38.434c0-4.142,3.358-7.5,7.5-7.5   s7.5,3.358,7.5,7.5c0,12.921,10.512,23.434,23.433,23.434s23.433-10.512,23.433-23.434c0-4.142,3.358-7.5,7.5-7.5   s7.5,3.358,7.5,7.5C273.433,366.544,256.192,383.786,235,383.786z M196.567,315.352v-40.419c0-21.192,17.241-38.433,38.433-38.433   c4.142,0,7.5,3.358,7.5,7.5s-3.358,7.5-7.5,7.5c-12.921,0-23.433,10.512-23.433,23.433v40.419c0,4.142-3.358,7.5-7.5,7.5   S196.567,319.494,196.567,315.352z M235,211.62c-27.624,0-53.766-10.586-73.61-29.81c-2.975-2.882-3.051-7.63-0.168-10.605   c2.881-2.975,7.63-3.051,10.605-0.168c17.031,16.498,39.466,25.583,63.173,25.583c23.708,0,46.143-9.086,63.173-25.583   c2.976-2.882,7.723-2.806,10.605,0.168c2.882,2.975,2.807,7.723-0.168,10.605C288.767,201.033,262.625,211.62,235,211.62z" fill="#e7453f"/><path d="M353.204,267.563c0-14.802-12.042-26.844-26.844-26.844c-14.802,0-26.845,12.042-26.845,26.844   c0,14.802,12.042,26.845,26.845,26.845C341.161,294.408,353.204,282.365,353.204,267.563z" fill="#ec6a65"/><path d="M353.204,419.393c0-19.634-15.973-35.607-35.607-35.607s-35.607,15.973-35.607,35.607   S297.963,455,317.597,455S353.204,439.026,353.204,419.393z" fill="#ec6a65"/><path d="M188.011,419.393c0-19.634-15.974-35.607-35.607-35.607s-35.607,15.973-35.607,35.607   S132.77,455,152.403,455S188.011,439.026,188.011,419.393z" fill="#ec6a65"/><path d="M143.641,294.408c14.802,0,26.845-12.042,26.845-26.845c0-14.802-12.042-26.844-26.845-26.844   c-14.802,0-26.844,12.042-26.844,26.844C116.796,282.365,128.839,294.408,143.641,294.408z" fill="#ec6a65"/><path d="M308.778,171.205c-2.882-2.975-7.629-3.051-10.605-0.168c-17.03,16.498-39.466,25.583-63.173,25.583   c-23.707,0-46.143-9.086-63.173-25.583c-2.975-2.882-7.724-2.807-10.605,0.168c-2.882,2.975-2.807,7.723,0.168,10.605   c19.844,19.224,45.986,29.81,73.61,29.81c27.625,0,53.767-10.587,73.61-29.81C311.585,178.928,311.661,174.18,308.778,171.205z" fill="#3d2a20"/><path d="M368.204,267.563v-21.521c0-11.238-4.392-22.83-12.05-31.803   c-4.476-5.245-9.693-9.204-15.329-11.749c0.088-29.445,0.219-83.424,0.064-101.508c16.29-7.119,26.88-23.27,26.88-41.834   c0-25.168-20.476-45.645-45.645-45.645c-8.671,0-17.145,2.484-24.41,7.082C279.623,7.271,257.575,0,235,0   s-44.623,7.271-62.714,20.584c-7.265-4.598-15.739-7.082-24.41-7.082c-25.168,0-45.645,20.476-45.645,45.645   c0,18.564,10.59,34.715,26.88,41.834c-0.155,18.085-0.024,72.063,0.064,101.508c-5.636,2.545-10.853,6.504-15.329,11.749   c-7.658,8.974-12.05,20.565-12.05,31.803v21.521c0,17.997,11.42,33.374,27.394,39.271v28.455   c-15.997,6.109-27.394,21.607-27.394,39.725v44.378c0,27.905,22.702,50.607,50.607,50.607c25.358,0,46.415-18.748,50.049-43.11   h65.096c3.634,24.362,24.691,43.11,50.049,43.11c27.905,0,50.607-22.702,50.607-50.607v-44.378   c0-18.118-11.397-33.616-27.394-39.725v-28.455C356.783,300.937,368.204,285.56,368.204,267.563z M325.691,332.501   c-4.142,0-7.5,3.358-7.5,7.5s3.358,7.5,7.5,7.5c15.17,0,27.513,12.342,27.513,27.513v8.457   c-9.151-9.072-21.734-14.686-35.607-14.686c-25.356,0-46.412,18.745-50.048,43.104h-65.097   c-3.636-24.359-24.692-43.104-50.048-43.104c-13.873,0-26.456,5.614-35.607,14.686v-8.457c0-15.171,12.342-27.513,27.513-27.513   c4.142,0,7.5-3.358,7.5-7.5s-3.358-7.5-7.5-7.5c-0.04,0-0.079,0.003-0.119,0.003v-23.11c22.82-0.297,41.295-18.942,41.295-41.831   c0-23.073-18.771-41.844-41.845-41.844c-8.997,0-17.333,2.864-24.164,7.715c4.38-10.432,13.711-19.259,24.833-19.259   c4.142,0,7.5-3.358,7.5-7.5s-3.358-7.5-7.5-7.5c-0.048,0-0.095,0.004-0.143,0.004c-0.12-42.009-0.207-98.774,0-102.8   c0.292-3.544-1.951-6.817-5.378-7.815c-12.893-3.754-21.556-15.576-21.556-29.417c0-16.897,13.747-30.645,30.645-30.645   c4.234,0,8.396,0.889,12.228,2.558c-7.179,7.182-13.259,15.326-18.139,24.309c-1.977,3.64-0.629,8.193,3.01,10.17   c1.138,0.618,2.364,0.911,3.573,0.911c2.661,0,5.238-1.419,6.597-3.921c5.588-10.288,13.012-19.295,22.064-26.771   C193.42,22.371,213.942,15,235,15c20.859,0,41.186,7.242,57.319,20.387c9.259,7.544,16.845,16.669,22.535,27.142   c1.359,2.502,3.937,3.921,6.597,3.921c1.209,0,2.436-0.293,3.573-0.911c3.64-1.978,4.987-6.531,3.01-10.17   c-4.886-8.993-10.979-17.123-18.156-24.301c3.837-1.674,8.005-2.566,12.245-2.566c16.897,0,30.645,13.747,30.645,30.645   c0,13.841-8.663,25.663-21.556,29.417c-3.428,0.998-5.67,4.271-5.378,7.815c0.207,4.026,0.12,60.792,0,102.8   c-0.048,0-0.095-0.004-0.143-0.004c-4.142,0-7.5,3.358-7.5,7.5s3.358,7.5,7.5,7.5c11.122,0,20.452,8.827,24.833,19.259   c-6.831-4.851-15.167-7.715-24.164-7.715c-23.073,0-41.845,18.771-41.845,41.844c0,22.889,18.475,41.534,41.295,41.831v23.11   C325.77,332.504,325.731,332.501,325.691,332.501z M281.989,419.393c0-19.634,15.974-35.607,35.607-35.607   s35.607,15.973,35.607,35.607S337.23,455,317.597,455S281.989,439.026,281.989,419.393z M152.403,455   c-19.634,0-35.607-15.974-35.607-35.607s15.973-35.607,35.607-35.607s35.607,15.973,35.607,35.607S172.037,455,152.403,455z    M143.641,240.719c14.802,0,26.845,12.042,26.845,26.844c0,14.802-12.042,26.845-26.845,26.845   c-14.802,0-26.844-12.042-26.844-26.845C116.796,252.761,128.839,240.719,143.641,240.719z M326.359,294.408   c-14.802,0-26.845-12.042-26.845-26.845c0-14.802,12.042-26.844,26.845-26.844c14.802,0,26.844,12.042,26.844,26.844   C353.204,282.365,341.161,294.408,326.359,294.408z" fill="#3d2a20"/><path d="M204.067,322.852c4.142,0,7.5-3.358,7.5-7.5v-40.419c0-12.921,10.512-23.433,23.433-23.433   c4.142,0,7.5-3.358,7.5-7.5s-3.358-7.5-7.5-7.5c-21.192,0-38.433,17.241-38.433,38.433v40.419   C196.567,319.494,199.925,322.852,204.067,322.852z" fill="#ffffff"/><path d="M265.933,337.852c-4.142,0-7.5,3.358-7.5,7.5c0,12.921-10.512,23.434-23.433,23.434   s-23.433-10.512-23.433-23.434c0-4.142-3.358-7.5-7.5-7.5s-7.5,3.358-7.5,7.5c0,21.192,17.241,38.434,38.433,38.434   s38.433-17.241,38.433-38.434C273.433,341.21,270.075,337.852,265.933,337.852z" fill="#ffffff"/><path d="M212.27,133.456c-3.197-2.634-7.924-2.178-10.558,1.019c-2.634,3.197-2.178,7.924,1.019,10.558   c9.069,7.473,20.529,11.588,32.27,11.588s23.201-4.115,32.27-11.588c3.197-2.634,3.653-7.361,1.019-10.558   c-2.634-3.196-7.36-3.652-10.558-1.019c-4.432,3.652-9.675,6.163-15.23,7.36v-18.288c0-4.142-3.358-7.5-7.5-7.5s-7.5,3.358-7.5,7.5   v18.288C221.944,139.619,216.702,137.108,212.27,133.456z" fill="#3d2a20"/><path d="M168.02,90.718c0.808,0.278,1.629,0.409,2.438,0.409c3.114,0,6.024-1.955,7.092-5.064   c6.049-17.602,20.169-31.722,37.771-37.771c3.917-1.346,6.001-5.613,4.655-9.53c-1.347-3.917-5.613-6.001-9.53-4.655   c-21.941,7.54-39.542,25.141-47.082,47.082C162.018,85.105,164.103,89.372,168.02,90.718z" fill="#ffffff"/></g></defs><g fi:class="KUsePattern"><pattern id="pattern_L1_320" width="350" height="350" patternUnits="userSpaceOnUse"><use xlink:href="#L1_320" x="-350" y="-350"/><use xlink:href="#L1_320" x="0" y="-350"/><use xlink:href="#L1_320" x="350" y="-350"/><use xlink:href="#L1_320" x="-350" y="0"/><use xlink:href="#L1_320" x="0" y="0"/><use xlink:href="#L1_320" x="350" y="0"/><use xlink:href="#L1_320" x="-350" y="350"/><use xlink:href="#L1_320" x="0" y="350"/><use xlink:href="#L1_320" x="350" y="350"/></pattern><rect x="0" y="0" width="100%" height="100%" fill="url(#pattern_L1_320)"/></g><g fi:class="KUsePattern"><pattern id="pattern_L1_322" width="350" height="350" patternUnits="userSpaceOnUse"><use xlink:href="#L1_322" x="-350" y="-350"/><use xlink:href="#L1_322" x="0" y="-350"/><use xlink:href="#L1_322" x="350" y="-350"/><use xlink:href="#L1_322" x="-350" y="0"/><use xlink:href="#L1_322" x="0" y="0"/><use xlink:href="#L1_322" x="350" y="0"/><use xlink:href="#L1_322" x="-350" y="350"/><use xlink:href="#L1_322" x="0" y="350"/><use xlink:href="#L1_322" x="350" y="350"/></pattern><rect x="0" y="0" width="100%" height="100%" fill="url(#pattern_L1_322)"/></g><g fi:class="KUsePattern"><pattern id="pattern_L1_323" width="350" height="350" patternUnits="userSpaceOnUse"><use xlink:href="#L1_323" x="-350" y="-350"/><use xlink:href="#L1_323" x="0" y="-350"/><use xlink:href="#L1_323" x="350" y="-350"/><use xlink:href="#L1_323" x="-350" y="0"/><use xlink:href="#L1_323" x="0" y="0"/><use xlink:href="#L1_323" x="350" y="0"/><use xlink:href="#L1_323" x="-350" y="350"/><use xlink:href="#L1_323" x="0" y="350"/><use xlink:href="#L1_323" x="350" y="350"/></pattern><rect x="0" y="0" width="100%" height="100%" fill="url(#pattern_L1_323)"/></g><g fi:class="KUsePattern"><pattern id="pattern_L1_324" width="350" height="350" patternUnits="userSpaceOnUse"><use xlink:href="#L1_324" x="-350" y="-350"/><use xlink:href="#L1_324" x="0" y="-350"/><use xlink:href="#L1_324" x="350" y="-350"/><use xlink:href="#L1_324" x="-350" y="0"/><use xlink:href="#L1_324" x="0" y="0"/><use xlink:href="#L1_324" x="350" y="0"/><use xlink:href="#L1_324" x="-350" y="350"/><use xlink:href="#L1_324" x="0" y="350"/><use xlink:href="#L1_324" x="350" y="350"/></pattern><rect x="0" y="0" width="100%" height="100%" fill="url(#pattern_L1_324)"/></g><g fi:class="KUsePattern"><pattern id="pattern_L1_325" width="350" height="350" patternUnits="userSpaceOnUse"><use xlink:href="#L1_325" x="-350" y="-350"/><use xlink:href="#L1_325" x="0" y="-350"/><use xlink:href="#L1_325" x="350" y="-350"/><use xlink:href="#L1_325" x="-350" y="0"/><use xlink:href="#L1_325" x="0" y="0"/><use xlink:href="#L1_325" x="350" y="0"/><use xlink:href="#L1_325" x="-350" y="350"/><use xlink:href="#L1_325" x="0" y="350"/><use xlink:href="#L1_325" x="350" y="350"/></pattern><rect x="0" y="0" width="100%" height="100%" fill="url(#pattern_L1_325)"/></g></svg>