<svg xmlns="http://www.w3.org/2000/svg" xmlns:xlink="http://www.w3.org/1999/xlink" xmlns:fi="http://pattern.flaticon.com/" x="0" y="0" width="2160" height="1080" viewBox="0 0 2160 1080"><rect x="0px" y="0px" width="100%" height="100%" opacity="1" fill="#ffa8d5"/><defs><g transform="matrix(0.042142171412706375 0 0 0.042142171412706375 77.5 340)" id="L1_66"><path d="M313.107,110.277c-36.431,0-71.877,16.739-93.538,46.277c-22.646-28.554-57.108-46.277-93.538-46.277    c-20.677,0-41.354,6.892-60.062,18.708l10.83,16.738c14.769-10.831,32.492-15.754,49.231-15.754    c34.462,0,66.954,18.708,84.677,49.231l8.861,14.769l8.862-14.769c17.723-30.523,50.215-49.231,84.677-49.231    c52.185,0,98.462,50.215,98.462,106.338c0,51.2-57.108,170.339-191.015,217.6c-132.923-47.262-191.015-166.4-191.015-217.6    c0-18.708,4.923-37.415,14.769-54.154l-16.739-9.846c-10.831,19.692-16.739,42.338-16.739,64    c0,69.908,71.877,191.015,207.754,237.292l2.954,0.985l1.969-0.985c135.877-47.262,207.754-167.385,207.754-237.292    C431.261,169.354,376.121,110.277,313.107,110.277z"/><path d="M345.599,0c-36.431,0-71.877,16.739-93.538,46.277C229.413,17.723,194.952,0,158.522,0    C95.507,0,40.368,59.077,40.368,126.031c0,69.908,71.877,191.015,207.754,237.292l2.954,0.985h2.954    c74.831-25.6,122.092-69.908,149.661-103.385l-14.769-12.8c-25.6,30.523-69.908,71.877-137.846,96.492    c-132.923-47.262-191.015-166.4-191.015-217.6c0-57.108,46.277-106.338,98.462-106.338c34.462,0,66.954,18.708,84.677,49.231    l8.861,14.769l8.862-14.769c17.723-30.523,50.215-49.231,84.677-49.231c52.185,0,98.462,50.215,98.462,106.338    c0,13.785-3.938,32.492-11.815,51.2l18.708,6.892c7.877-21.662,12.8-42.338,12.8-59.077C463.753,59.077,408.613,0,345.599,0z"/></g><g transform="matrix(0.1904294341802597 0 0 0.1904294341802597 217.5 217.5)" id="L1_67"><path d="M277.172,0c-15.754,0-30.523,5.908-41.354,16.739C224.987,5.908,210.218,0,194.464,0    c-30.523,0-57.108,26.585-57.108,59.077c0,31.508,33.477,86.646,95.508,107.323l2.954,0.985l2.954-0.985    c62.031-20.677,95.508-75.815,95.508-107.323S308.68,0,277.172,0z M235.818,146.708c-55.138-19.692-78.769-66.954-78.769-87.631    c0-20.677,17.723-39.385,37.415-39.385c13.785,0,26.585,6.892,32.492,18.708l8.861,14.769l8.862-14.769    c6.892-11.815,18.708-18.708,32.492-18.708c19.692,0,37.415,17.723,37.415,39.385C314.587,79.754,290.957,127.015,235.818,146.708    z"/><rect x="225px" y="157px" width="19px" height="157px"/><path d="M329.357,219.569v-37.415h-37.415c-36.431,0-65.969,29.539-65.969,65.969v37.415h37.415    C299.818,285.538,330.341,256,329.357,219.569z M309.664,219.569c0,25.6-20.677,46.277-46.277,46.277h-17.723v-17.723    c0-25.6,20.677-46.277,46.277-46.277h17.723V219.569z"/><path d="M140.311,305.231l23.631,167.385h143.754l23.631-167.385H140.311z M289.972,452.923H180.68l-17.723-128H308.68    L289.972,452.923z"/><rect x="109px" y="305px" width="253px" height="19px"/></g><g transform="matrix(0.078125 0 0 0.078125 155 330)" id="L1_68"><path d="M496.941,48.471H416V34.353c0-8.317-6.743-15.059-15.059-15.059s-15.059,6.742-15.059,15.059v14.118H271.059V34.353    c0-8.317-6.743-15.059-15.059-15.059c-8.317,0-15.059,6.742-15.059,15.059v14.118H126.118V34.353    c0-8.317-6.742-15.059-15.059-15.059C102.742,19.294,96,26.036,96,34.353v14.118H15.059C6.742,48.471,0,55.212,0,63.529v126.494    v287.624c0,8.317,6.742,15.059,15.059,15.059h481.882c8.315,0,15.059-6.742,15.059-15.059V190.024V63.529    C512,55.212,505.257,48.471,496.941,48.471z M481.882,462.588H30.118V205.082h451.765V462.588z M481.882,174.965H30.118V78.588H96    v6.024c0,8.317,6.742,15.059,15.059,15.059c8.317,0,15.059-6.742,15.059-15.059v-6.024h114.823v6.024    c0,8.317,6.742,15.059,15.059,15.059c8.315,0,15.059-6.742,15.059-15.059v-6.024h114.824v6.024    c0,8.317,6.743,15.059,15.059,15.059S416,92.929,416,84.612v-6.024h65.882V174.965z"/><path d="M384.729,299.197c-2.143-40.052-34.503-71.426-73.674-71.426c-2.193,0-4.351,0.128-6.472,0.372    c-20.507,2.348-37.572,15.368-48.375,26.016c-8.772-8.856-21.847-19.271-38.057-23.924c-5.403-1.551-11.156-2.462-17.212-2.462    c-13.464,0-26.122,3.707-37.027,10.199c-20.817,12.395-35.236,34.943-36.643,61.228c-1.295,24.281,8.087,41.553,15.256,52.433    c9.943,15.083,34.394,37.76,53.96,53.95c37.883,31.346,51.7,35.265,57.553,35.754c0.836,0.069,1.51,0.069,2.068,0.069    c4.522,0,16.535,0,59.609-35.76c2.427-2.015,4.932-4.132,7.475-6.325c3.211-2.768,6.481-5.662,9.742-8.614    c1.807-1.635,3.61-3.286,5.396-4.951c11.582-10.806,22.456-22.054,29.115-31.197c0.402-0.553,0.75-1.078,1.12-1.614    c0.306-0.441,0.638-0.897,0.922-1.327c0,0,0-0.002,0.002-0.002C376.653,340.716,386.028,323.422,384.729,299.197z M344.32,335.069    c-0.785,1.194-1.756,2.522-2.893,3.966c-7.963,10.11-24.121,25.912-42.254,41.184c-22.469,18.924-37.474,28.392-43.071,30.714    c-16.03-6.328-74.811-55.21-88.43-75.877c-0.492-0.748-0.967-1.489-1.422-2.224c-6.771-10.925-9.455-20.561-8.918-31.723    c0.005-0.102,0.005-0.203,0.011-0.306c0.831-15.53,9.54-29.16,21.864-36.695c6.456-3.947,13.904-6.222,21.731-6.222    c2.214,0,4.384,0.241,6.501,0.678c1.411,0.292,2.798,0.67,4.158,1.122c0.681,0.226,1.352,0.471,2.018,0.732    c17.31,6.798,29.713,24.942,29.842,25.133c2.742,4.131,7.353,6.629,12.311,6.712c4.974,0.107,9.651-2.299,12.526-6.338    c3.298-4.631,11.163-13.646,20.923-20.207c6.677-4.489,14.243-7.829,21.838-7.829c22.775,0,42.333,19.253,43.6,42.919    c0.041,0.751,0.066,1.495,0.077,2.233C354.894,314.11,351.715,323.82,344.32,335.069z"/><path d="M380.982,120.753H86.085c-8.317,0-15.059,6.742-15.059,15.059c0,8.317,6.742,15.059,15.059,15.059h294.898    c8.315,0,15.059-6.742,15.059-15.059C396.041,127.495,389.299,120.753,380.982,120.753z"/><path d="M440.68,132.863c-0.194-0.949-0.482-1.897-0.858-2.816c-0.376-0.904-0.843-1.777-1.385-2.59    c-0.541-0.828-1.173-1.596-1.866-2.289c-0.709-0.693-1.476-1.325-2.29-1.882c-0.828-0.542-1.702-1.009-2.604-1.385    c-0.905-0.376-1.852-0.663-2.816-0.858c-1.943-0.392-3.945-0.392-5.888,0c-0.964,0.196-1.914,0.482-2.816,0.858    c-0.902,0.376-1.777,0.843-2.604,1.385c-0.813,0.557-1.598,1.19-2.29,1.882s-1.325,1.461-1.867,2.289    c-0.541,0.813-1.009,1.687-1.385,2.59c-0.376,0.919-0.661,1.867-0.857,2.816c-0.197,0.979-0.286,1.973-0.286,2.952    s0.09,1.973,0.286,2.936c0.196,0.964,0.48,1.912,0.857,2.816c0.376,0.919,0.845,1.792,1.385,2.605    c0.542,0.828,1.175,1.596,1.867,2.289c0.693,0.693,1.476,1.325,2.29,1.867c0.828,0.542,1.702,1.009,2.604,1.385    c0.902,0.376,1.852,0.663,2.816,0.858s1.958,0.301,2.936,0.301c0.994,0,1.973-0.105,2.952-0.301    c0.964-0.196,1.912-0.482,2.816-0.858c0.904-0.376,1.777-0.843,2.604-1.385c0.813-0.542,1.581-1.175,2.29-1.867    c0.693-0.693,1.325-1.461,1.866-2.289c0.542-0.813,1.009-1.687,1.385-2.605c0.377-0.904,0.663-1.852,0.858-2.816    c0.196-0.964,0.301-1.958,0.301-2.936S440.876,133.842,440.68,132.863z"/></g><g transform="matrix(0.09765625 0 0 0.09765625 62.5 237.5)" id="L1_69"><path d="M509.697,166.405c-4.857-13-16.847-22.632-35.637-28.627c-16.762-5.348-38.561-7.691-64.786-6.963  c-52.999,1.471-118.885,15.296-185.523,38.925C114.487,208.485,26.673,265.736,5.237,312.199c-5.8,12.573-6.788,24.178-2.934,34.493  c4.857,13,16.847,22.632,35.637,28.626c14.774,4.714,33.455,7.092,55.635,7.092c2.986,0,6.039-0.043,9.151-0.129  c52.999-1.471,118.885-15.296,185.523-38.925c109.265-38.745,197.079-95.996,218.515-142.459  C512.564,188.324,513.551,176.719,509.697,166.405z M493.555,194.676c-19.574,42.43-105.984,97.856-210.133,134.788  c-65.251,23.138-129.566,36.669-181.096,38.099c-48.216,1.336-79.7-8.164-86.39-26.07c-2.416-6.466-1.572-14.229,2.508-23.073  c19.575-42.43,105.984-97.857,210.133-134.788c65.251-23.138,129.566-36.669,181.096-38.099c2.999-0.083,5.928-0.125,8.796-0.125  c43.233,0,71.321,9.402,77.595,26.195C498.48,178.07,497.636,185.832,493.555,194.676z M219.29,144.437  c-1.333-3.837,0.665-8.038,4.462-9.384c73.44-26.042,146.862-40.243,201.456-38.974c4.023,0.094,7.209,3.465,7.116,7.529  c-0.093,4.065-3.402,7.299-7.453,7.19c-52.896-1.24-124.446,12.67-196.293,38.147c-0.798,0.283-1.613,0.417-2.413,0.417  C223.157,149.362,220.342,147.467,219.29,144.437z M344.295,346.666c1.594,3.733-0.109,8.065-3.803,9.676  c-16.83,7.337-34.407,14.264-52.244,20.589C217.176,402.134,147.763,416,94.058,416c-6.674,0-13.099-0.214-19.261-0.647  c-4.014-0.282-7.042-3.799-6.763-7.855s3.76-7.11,7.774-6.833c53.044,3.727,130.661-10.339,207.614-37.626  c17.518-6.212,34.776-13.014,51.296-20.216C338.413,341.212,342.701,342.932,344.295,346.666z" fill="#5bdee3"/><path d="M186.314,165.648c18.713,18.944,21.616,48.627,6.936,70.919l0,0  c-18.961,27.615-43.147,51.147-71.156,69.23l-15.655,10.107c-3.142,2.028-7.16,2.028-10.302,0l-15.655-10.107  c-28.009-18.084-52.195-41.615-71.156-69.23l0,0c-14.679-22.292-11.776-51.974,6.936-70.919l0,0  c20.761-21.018,54.421-21.018,75.182,0l3.07,3.108c3.741,3.788,9.807,3.788,13.548,0l3.07-3.108  C131.893,144.629,165.553,144.629,186.314,165.648L186.314,165.648z M495.739,211.462L495.739,211.462  c-20.761-21.018-54.421-21.018-75.182,0l-3.07,3.108c-3.741,3.788-9.807,3.788-13.548,0l-3.07-3.108  c-20.761-21.018-54.421-21.018-75.182,0l0,0c-18.713,18.944-21.616,48.627-6.936,70.919l0,0  c18.961,27.615,43.147,51.147,71.156,69.23l15.655,10.107c3.142,2.028,7.16,2.028,10.302,0l15.655-10.107  c28.009-18.084,52.195-41.615,71.156-69.23l0,0C517.355,260.089,514.451,230.407,495.739,211.462z" fill="#ff4040"/><path d="M99.557,317.246c-1.194-0.222-2.359-0.656-3.421-1.342l-15.655-10.107  c-28.009-18.084-52.195-41.615-71.156-69.23l0,0c-14.679-22.292-11.776-51.974,6.936-70.919l0,0  c15.318-15.507,37.653-19.559,56.652-12.183c-8.759,3.088-16.984,8.172-23.981,15.257l0,0  c-22.361,22.638-25.831,58.109-8.289,84.747l0,0C57.171,277.54,77.035,299,99.557,317.246z M350.068,299.283L350.068,299.283  c-17.542-26.639-14.073-62.109,8.289-84.747l0,0c6.998-7.085,15.223-12.169,23.981-15.257c-19-7.375-41.335-3.324-56.652,12.183l0,0  c-18.713,18.944-21.616,48.627-6.936,70.919l0,0c18.961,27.615,43.147,51.147,71.156,69.231l15.655,10.107  c1.062,0.685,2.227,1.119,3.421,1.342C386.46,344.815,366.596,323.355,350.068,299.283z" fill="#ed3c3c"/><path d="M206.836,273.525l-11.68,6.467c-1.678,0.929-3.057,2.326-3.975,4.024l-6.388,11.825  c-3.793,7.021-13.754,7.021-17.547,0l-6.388-11.825c-0.918-1.699-2.297-3.095-3.975-4.024l-11.68-6.467  c-6.935-3.84-6.935-13.924,0-17.765l11.68-6.467c1.678-0.929,3.057-2.326,3.975-4.024l6.388-11.825  c3.793-7.021,13.754-7.021,17.547,0l6.388,11.825c0.918,1.699,2.297,3.095,3.975,4.024l11.68,6.467  C213.771,259.6,213.771,269.685,206.836,273.525z M506.798,374.067l-7.246-4.012c-1.678-0.929-3.057-2.326-3.975-4.024l-3.963-7.336  c-3.793-7.021-13.754-7.021-17.547,0l-3.963,7.336c-0.918,1.699-2.297,3.095-3.975,4.024l-7.246,4.012  c-6.936,3.84-6.936,13.924,0,17.764l7.246,4.012c1.678,0.929,3.057,2.326,3.975,4.024l3.963,7.336  c3.793,7.021,13.754,7.021,17.547,0l3.963-7.336c0.918-1.699,2.297-3.095,3.975-4.024l7.246-4.012  C513.734,387.991,513.734,377.906,506.798,374.067z" fill="#ffdc64"/></g><path d="M237.376,436.245l0.774,0.976c210.94-85.154,292.221-282.553,199.331-367.706    c-92.899-85.154-199.331,30.953-199.331,30.953h-0.774c0,0-106.44-116.107-199.331-30.953    C-54.844,154.658,26.437,351.092,237.376,436.245z" transform="matrix(0.14720478653907776 0 0 0.14720478653907776 315 140)" id="L1_70"/><g transform="matrix(0.078125 0 0 0.078125 67.5 67.5)" id="L1_71"><path d="M437.333,0H266.667c-4.267,0-8.384,0.533-12.437,1.216c-5.227,0.875-9.003,5.44-8.896,10.731     c0.107,5.291,4.075,9.707,9.323,10.368c16.427,2.091,30.869,9.6,42.112,20.352h76.565c5.888,0,10.667,4.779,10.667,10.667     S379.221,64,373.333,64h-60.992C317.099,73.771,320,84.544,320,96c0,5.888,4.779,10.667,10.667,10.667h160V384H213.333v-53.333     c0-5.888-4.779-10.667-10.667-10.667S192,324.779,192,330.667v106.667C192,478.507,225.493,512,266.667,512h170.667     C478.507,512,512,478.507,512,437.333V74.667C512,33.493,478.507,0,437.333,0z M437.973,64c-5.888,0-10.773-4.779-10.773-10.667     s4.672-10.667,10.56-10.667h0.213c5.888,0,10.667,4.779,10.667,10.667S443.861,64,437.973,64z M352,469.333     c-11.755,0-21.333-9.579-21.333-21.333c0-11.755,9.579-21.333,21.333-21.333c11.755,0,21.333,9.579,21.333,21.333     C373.333,459.755,363.755,469.333,352,469.333z"/><path d="M245.333,320c0.128,0,0.277-0.021,0.427,0c5.888,0,10.667-4.779,10.667-10.667c0-2.219-0.683-4.309-1.856-6.016     L238.805,256h6.528c29.397,0,53.333-23.936,53.333-53.333V96c0-29.397-23.936-53.333-53.333-53.333h-192     C23.936,42.667,0,66.603,0,96v106.667C0,232.064,23.936,256,53.333,256h103.104l82.496,61.867     C240.832,319.296,243.093,320,245.333,320z M155.797,211.157c-1.899,1.451-4.181,2.176-6.464,2.176     c-2.24,0-4.48-0.704-6.379-2.133c-5.909-4.416-57.685-44.181-57.685-82.475c0-24.192,19.563-43.392,42.731-43.392     c7.744,0,14.848,2.517,21.227,7.509c6.4-4.523,13.931-6.997,21.696-6.997c23.381,0,42.411,18.24,42.411,40.683     C213.333,166.229,161.685,206.656,155.797,211.157z"/></g><g transform="matrix(0.0390625 0 0 0.0390625 252.5 340)" id="L1_72"><path d="M395.252,250.176v106.777c0,10.722-8.659,19.414-19.341,19.414c-3.527,0-6.823-0.963-9.67-2.618  v41.447c0,10.722-8.659,19.414-19.341,19.414s-19.341-8.692-19.341-19.414V308.418c0-10.722,8.659-19.414,19.341-19.414  c3.527,0,6.823,0.963,9.67,2.618v-41.447c0-10.722,8.659-19.414,19.341-19.414S395.252,239.454,395.252,250.176z" fill="#ffc850"/><path d="M114.812,211.348c10.682,0,19.341,8.692,19.341,19.414v41.447c2.847-1.655,6.143-2.618,9.67-2.618  c10.682,0,19.341,8.692,19.341,19.414v106.777c0,10.722-8.659,19.414-19.341,19.414s-19.341-8.692-19.341-19.414v-41.447  c-2.847,1.655-6.143,2.618-9.67,2.618c-10.682,0-19.341-8.692-19.341-19.414V230.762C95.471,220.04,104.131,211.348,114.812,211.348  z" fill="#fa9e39"/><path d="M444.845,85.629c5.145,5.17,10.035,10.499,14.673,15.973c10.623,12.538,12.197,30.509,4.091,44.837  L263.831,499.558c-3.728,6.589-13.135,6.589-16.863,0L48.38,148.541c-8.043-14.216-6.531-32.006,3.865-44.569  c6.602-7.979,13.734-15.662,21.403-22.998C177.935-18.79,343.011-16.688,444.845,85.629z" fill="#ffc850"/><path d="M277.023,476.241L96.843,157.762c-13.273-23.461-10.778-52.821,6.378-73.555  c10.896-13.168,22.666-25.848,35.322-37.955c7.894-7.552,16.001-14.746,24.297-21.591c94.869-35.905,206.034-15.363,282.005,60.968  c5.145,5.17,10.035,10.499,14.673,15.973c10.622,12.538,12.197,30.509,4.091,44.837L277.023,476.241z" fill="#ffdc64"/><path d="M470.686,151.175l-2.783,4.92c-3.515,6.213-12.173,6.843-16.568,1.222  c-1.153-1.474-2.319-2.938-3.5-4.391c-25.482-31.37-54.863-55.161-86.257-71.359c-5.171,8-14.141,13.296-24.348,13.296  c-16.022,0-29.011-13.038-29.011-29.121c0-1.338,0.098-2.653,0.272-3.943c-36.075-8.588-73.321-8.105-109.29,1.505  c1.693,3.698,2.645,7.809,2.645,12.145c0,16.083-12.989,29.121-29.011,29.121c-12.636,0-23.38-8.112-27.359-19.429  c-26.886,14.956-52.199,35.599-74.715,61.991c-3.451,4.045-6.788,8.179-10.019,12.392c-4.359,5.684-13.078,5.067-16.607-1.17  l-2.831-5.005c-8.317-14.7-6.753-33.097,3.996-46.088c6.827-8.251,14.202-16.196,22.132-23.782  C175.273-19.686,345.977-17.513,451.283,88.293c5.32,5.346,10.377,10.857,15.173,16.517  C477.44,117.775,479.068,136.359,470.686,151.175z" fill="#ef9f67"/><path d="M89.058,127.542c-6.276,6.138-12.386,12.661-18.298,19.591c-3.451,4.045-6.788,8.179-10.019,12.392  c-4.359,5.684-13.078,5.067-16.607-1.17l-2.831-5.005c-8.317-14.7-6.753-33.097,3.996-46.088  c5.46-6.599,11.288-12.992,17.453-19.173C68.383,102.053,77.32,115.297,89.058,127.542z" fill="#de925f"/><path d="M163.164,155.886c-16.827-10.772-31.358-24.789-42.75-41.239l0,0  c-8.819-13.279-7.075-30.96,4.167-42.245l0,0c12.473-12.52,32.695-12.52,45.168,0l1.845,1.851c2.248,2.256,5.892,2.256,8.14,0  l1.845-1.851c12.473-12.52,32.695-12.52,45.168,0l0,0c11.242,11.285,12.986,28.966,4.167,42.245l0,0  c-11.391,16.45-25.922,30.467-42.75,41.239l-9.405,6.021c-1.888,1.208-4.302,1.208-6.189,0L163.164,155.886z M265.428,353.905  c-12.473-12.52-32.695-12.52-45.168,0l-1.845,1.851c-2.248,2.256-5.892,2.256-8.14,0l-1.845-1.851  c-12.473-12.52-32.695-12.52-45.168,0l0,0c-11.242,11.285-12.986,28.966-4.167,42.245l0,0c11.391,16.45,25.922,30.467,42.75,41.239  l9.405,6.021c1.888,1.208,4.302,1.208,6.189,0l9.405-6.021c16.827-10.772,31.358-24.789,42.75-41.239l0,0  C278.414,382.871,276.67,365.19,265.428,353.905L265.428,353.905z M414.493,240.152L414.493,240.152  c-12.473-12.52-32.695-12.52-45.168,0l-1.844,1.851c-2.248,2.256-5.892,2.256-8.139,0l-1.845-1.851  c-12.473-12.52-32.695-12.52-45.168,0l0,0c-11.242,11.285-12.986,28.966-4.167,42.245l0,0c11.391,16.45,25.922,30.467,42.75,41.239  l9.405,6.021c1.888,1.208,4.302,1.208,6.189,0l9.405-6.021c16.827-10.772,31.358-24.789,42.75-41.239l0,0  C427.48,269.118,425.736,251.437,414.493,240.152z" fill="#ff507d"/><path d="M163.164,155.886c-16.827-10.772-31.358-24.789-42.75-41.239c-8.819-13.279-7.075-30.96,4.167-42.245  l0,0c9.775-9.812,24.308-11.932,36.142-6.365c-2.293,1.572-4.479,3.368-6.514,5.411l0,0c-15.926,15.986-18.397,41.034-5.903,59.845  l0,0c7.863,11.355,16.789,21.883,26.626,31.468c-0.825-0.106-1.634-0.388-2.363-0.855L163.164,155.886z M186.988,412.796  L186.988,412.796c-12.493-18.811-10.022-43.859,5.903-59.845l0,0c2.035-2.043,4.221-3.839,6.514-5.411  c-11.834-5.567-26.367-3.447-36.142,6.365l0,0c-11.242,11.285-12.986,28.966-4.167,42.245c11.392,16.45,25.922,30.467,42.75,41.239  l9.405,6.021c0.729,0.467,1.537,0.749,2.363,0.855C203.777,434.68,194.851,424.151,186.988,412.796z M336.053,299.043  L336.053,299.043c-12.493-18.811-10.022-43.859,5.903-59.845l0,0c2.035-2.043,4.221-3.839,6.514-5.411  c-11.834-5.567-26.367-3.447-36.142,6.365l0,0c-11.242,11.285-12.986,28.966-4.167,42.245c11.391,16.45,25.922,30.467,42.75,41.239  l9.405,6.021c0.729,0.467,1.537,0.749,2.363,0.855C352.842,320.927,343.916,310.398,336.053,299.043z" fill="#f13269"/><path d="M250.197,279.297c0,10.722-8.659,19.414-19.341,19.414s-19.341-8.692-19.341-19.414  s8.659-19.414,19.341-19.414S250.197,268.575,250.197,279.297z M172.834,201.641c-10.682,0-19.341,8.692-19.341,19.414  s8.659,19.414,19.341,19.414s19.341-8.692,19.341-19.414S183.516,201.641,172.834,201.641z M356.57,143.398  c-10.682,0-19.341,8.692-19.341,19.414s8.659,19.414,19.341,19.414s19.341-8.692,19.341-19.414S367.252,143.398,356.57,143.398z   M269.537,143.398c-16.022,0-29.011,13.038-29.011,29.121s12.989,29.121,29.011,29.121s29.011-13.038,29.011-29.121  S285.56,143.398,269.537,143.398z" fill="#fa9e39"/><path d="M202.483,279.313c0,14.839,12.338,26.912,27.503,26.912s27.503-12.073,27.503-26.912s-12.338-26.912-27.503-26.912  S202.483,264.473,202.483,279.313z M242.487,279.313c0,6.569-5.608,11.913-12.501,11.913s-12.501-5.344-12.501-11.913  s5.608-11.913,12.501-11.913S242.487,272.744,242.487,279.313z M169.98,194.162c-15.165,0-27.503,12.073-27.503,26.912  s12.338,26.912,27.503,26.912s27.503-12.073,27.503-26.912C197.482,206.235,185.144,194.162,169.98,194.162z M169.98,232.988  c-6.893,0-12.501-5.344-12.501-11.913s5.608-11.913,12.501-11.913s12.501,5.344,12.501,11.913  C182.481,227.643,176.873,232.988,169.98,232.988z M359.998,189.749c15.165,0,27.503-12.073,27.503-26.912  s-12.338-26.912-27.503-26.912s-27.503,12.073-27.503,26.912S344.833,189.749,359.998,189.749z M359.998,150.923  c6.893,0,12.501,5.344,12.501,11.913s-5.608,11.913-12.501,11.913s-12.501-5.344-12.501-11.913S353.105,150.923,359.998,150.923z   M307.493,172.543c0-20.191-16.824-36.619-37.504-36.619s-37.504,16.427-37.504,36.619s16.824,36.619,37.504,36.619  C290.669,209.161,307.493,192.734,307.493,172.543z M247.487,172.543c0-11.921,10.095-21.62,22.502-21.62s22.502,9.699,22.502,21.62  c0,11.921-10.095,21.62-22.502,21.62C257.582,194.162,247.487,184.464,247.487,172.543z M479.281,99.895  c-5.105-5.826-10.523-11.529-16.105-16.953c-16.225-15.761-34.291-29.619-53.698-41.188c-3.559-2.121-8.162-0.956-10.283,2.601  c-2.122,3.557-0.957,8.161,2.601,10.282c18.403,10.972,35.537,24.115,50.925,39.063c5.294,5.145,10.435,10.555,15.276,16.08  c9.169,10.463,10.593,25.587,3.543,37.633l-2.879,4.92c-0.63,1.076-1.692,1.309-2.268,1.353c-0.487,0.036-1.697,0.006-2.561-1.061  c-1.222-1.51-2.457-3.01-3.707-4.498c-26.433-31.464-57.253-56.106-91.6-73.241c-3.382-1.688-7.486-0.596-9.585,2.543  c-4.17,6.238-11.252,9.963-18.944,9.963c-12.407,0-22.502-9.699-22.502-21.62c0-0.932,0.07-1.91,0.21-2.909  c0.536-3.849-1.958-7.471-5.747-8.343c-22.598-5.201-45.724-7.187-68.739-5.903c-4.136,0.231-7.301,3.77-7.071,7.906  s3.777,7.298,7.907,7.07c19.558-1.092,39.206,0.334,58.497,4.238c1.098,19.237,17.473,34.56,37.445,34.56  c10.39,0,20.133-4.152,27.146-11.353c30.375,16.064,57.768,38.492,81.497,66.737c1.191,1.417,2.367,2.846,3.53,4.282  c0.136,0.168,0.292,0.315,0.433,0.477l-37.984,64.915c-15.134-7.329-34.051-4.89-46.654,7.341l-0.892,0.866l-0.892-0.866  c-15.758-15.293-41.4-15.295-57.161,0c-14.219,13.799-16.434,35.613-5.269,51.869c0.028,0.041,0.057,0.081,0.085,0.121  c12.423,17.345,28.021,31.895,46.361,43.247l9.727,6.021c2.171,1.344,4.661,2.016,7.149,2.016s4.977-0.672,7.147-2.016l9.727-6.021  c2.924-1.81,5.771-3.71,8.554-5.681v32.619c0,6.569-5.608,11.913-12.501,11.913c-2.242,0-4.371-0.557-6.325-1.656  c-2.323-1.307-5.165-1.282-7.464,0.063c-2.3,1.345-3.713,3.809-3.713,6.473v41.444c0,6.569-5.608,11.913-12.501,11.913  s-12.501-5.344-12.501-11.913v-26.247l13.373-22.855c2.092-3.575,0.889-8.168-2.687-10.26c-3.574-2.09-8.169-0.89-10.262,2.686  l-80.307,137.246c-0.626,1.069-1.675,1.229-2.244,1.229c-0.57,0-1.62-0.16-2.246-1.229l-28.542-48.779l5.205-3.222  c18.341-11.351,33.939-25.902,46.362-43.247c0.028-0.04,0.057-0.081,0.085-0.121c11.165-16.255,8.949-38.069-5.269-51.868l0,0  c-15.759-15.294-41.4-15.294-57.162,0l-0.892,0.866l-0.892-0.866c-15.759-15.294-41.401-15.293-57.161,0  c-14.218,13.799-16.434,35.613-5.269,51.868c0.028,0.041,0.057,0.081,0.085,0.121c0.337,0.47,0.685,0.93,1.026,1.396  c-2.238,3.56-6.273,5.782-10.723,5.782c-6.893,0-12.501-5.344-12.501-11.913v-41.444c0-2.664-1.413-5.128-3.713-6.473  c-2.3-1.346-5.141-1.37-7.464-0.063c-1.954,1.099-4.082,1.656-6.325,1.656c-6.893,0-12.501-5.344-12.501-11.913v-78.084  l40.158,68.631c1.396,2.385,3.904,3.714,6.481,3.714c1.286,0,2.59-0.331,3.781-1.027c3.576-2.092,4.779-6.685,2.687-10.26  l-91.13-155.743c0.163-0.189,0.327-0.377,0.482-0.574c3.291-4.15,6.692-8.218,10.108-12.09  c11.719-13.281,24.439-25.316,37.874-35.858c0.521,0.9,1.072,1.788,1.67,2.658c0.028,0.041,0.057,0.081,0.085,0.121  c12.423,17.345,28.021,31.895,46.361,43.247l9.727,6.021c2.171,1.344,4.66,2.016,7.148,2.016c2.489,0,4.978-0.672,7.15-2.016  l9.726-6.021c18.341-11.351,33.939-25.902,46.362-43.247c0.028-0.04,0.057-0.081,0.085-0.121  c11.165-16.255,8.949-38.069-5.269-51.869l0,0c-15.759-15.294-41.4-15.294-57.162,0l-0.892,0.866l-0.892-0.866  c-15.76-15.294-41.402-15.293-57.161,0c-9.465,9.186-13.603,21.923-12.024,34.208c-15.697,11.852-30.512,25.608-44.038,40.938  c-3.589,4.068-7.161,8.339-10.613,12.693c-0.842,1.061-2.047,1.098-2.531,1.062c-0.584-0.041-1.658-0.273-2.294-1.36l-2.928-5.005  c-6.964-11.9-5.614-26.939,3.359-37.422c6.921-8.088,14.417-15.877,22.281-23.151c82.387-76.202,202.621-95.675,306.304-49.61  c3.786,1.682,8.218-0.023,9.9-3.808s-0.022-8.217-3.808-9.899C326.036,2.405,268.099-5.257,210.912,3.546  C152.42,12.547,98.81,38.294,55.879,78.003c-8.291,7.668-16.195,15.881-23.493,24.41c-13.124,15.335-15.097,37.337-4.909,54.748  l2.928,5.005c2.96,5.059,8.263,8.329,14.185,8.748c0.364,0.026,0.727,0.034,1.09,0.038l36.831,62.945  c-0.026,0.253-0.039,0.51-0.039,0.769v102.885c0,14.839,12.338,26.912,27.503,26.912c0.836,0,1.67-0.038,2.5-0.113v31.439  c0,14.839,12.338,26.912,27.503,26.912c7.916,0,15.25-3.313,20.371-8.845c10.316,11.577,22.263,21.606,35.686,29.914l9.727,6.021  c1.261,0.781,2.631,1.328,4.044,1.655l30.368,51.9c3.171,5.419,8.851,8.654,15.195,8.654c6.343,0,12.023-3.236,15.193-8.654  l51.933-88.754v0.61c0,14.839,12.338,26.912,27.503,26.912s27.503-12.073,27.503-26.912v-31.439c0.83,0.075,1.664,0.113,2.5,0.113  c15.165,0,27.503-12.073,27.503-26.912v-44.635c8.478-7.664,16.108-16.197,22.807-25.55c0.028-0.04,0.057-0.081,0.085-0.121  c10.729-15.62,9.095-36.367-3.662-50.209l39.651-67.763c0.379-0.005,0.759-0.015,1.14-0.043c5.879-0.443,11.147-3.709,14.087-8.735  l2.879-4.92C494.804,137.36,492.711,115.221,479.281,99.895z M125.302,77.812c9.997-9.702,26.266-9.703,36.263,0l1.907,1.851  c5.203,5.049,13.667,5.048,18.868,0l1.906-1.851c10-9.704,26.266-9.702,36.264,0c8.936,8.674,10.356,22.356,3.39,32.559  c-11.256,15.698-25.391,28.874-42.016,39.162l-8.978,5.558l-8.98-5.558c-16.624-10.289-30.759-23.465-42.015-39.162  C114.945,100.168,116.365,86.486,125.302,77.812z M203.93,431.018c-16.624-10.289-30.759-23.465-42.015-39.162  c-6.966-10.202-5.546-23.885,3.39-32.558c9.997-9.702,26.266-9.704,36.263,0l1.907,1.851c5.203,5.049,13.667,5.048,18.868,0  l1.906-1.851c10-9.704,26.266-9.702,36.264,0l0,0c8.936,8.674,10.356,22.356,3.39,32.559  c-11.256,15.698-25.391,28.874-42.016,39.162l-8.978,5.558L203.93,431.018z M418.067,278.11  c-11.256,15.698-25.391,28.874-42.015,39.162l-8.98,5.558l-8.979-5.558c-16.624-10.289-30.759-23.465-42.015-39.162  c-6.967-10.203-5.546-23.885,3.39-32.558c9.998-9.702,26.267-9.704,36.263,0l1.908,1.852c5.202,5.048,13.663,5.047,18.867,0  l1.906-1.851c10-9.704,26.266-9.703,36.264,0l0,0C423.613,254.225,425.033,267.908,418.067,278.11z"/></g><g transform="matrix(0.078125 0 0 0.078125 242.5 67.5)" id="L1_73"><path d="M246.42,180.761c-13.119,0.001-25.469,5.449-34.303,14.723c-8.833-9.275-21.184-14.723-34.303-14.723    c-26.136,0-47.399,21.264-47.399,47.4c0,59.125,74.625,100.359,77.801,102.085c1.217,0.66,2.559,0.991,3.901,0.991    c1.342,0,2.684-0.331,3.901-0.991c3.177-1.727,77.801-42.96,77.801-102.085C293.819,202.025,272.556,180.761,246.42,180.761z     M212.112,313.6c-14.638-8.908-65.356-42.853-65.356-85.439c0-17.127,13.933-31.06,31.059-31.06    c11.268,0,21.675,6.144,27.158,16.034c1.44,2.597,4.176,4.208,7.146,4.208s5.706-1.611,7.146-4.208    c5.483-9.89,15.888-16.034,27.157-16.034c17.125,0.001,31.058,13.934,31.058,31.06C277.479,270.648,226.742,304.674,212.112,313.6    z"/><path d="M106.108,314.901V197.1c4.494-0.022,8.13-3.669,8.13-8.168c0-4.513-3.658-8.17-8.17-8.17H89.809    c-4.512,0-8.17,3.657-8.17,8.17c0,4.499,3.636,8.146,8.129,8.168v117.8c-4.494,0.023-8.129,3.669-8.129,8.168    c0,4.513,3.658,8.17,8.17,8.17h16.259c4.512,0,8.17-3.657,8.17-8.17C114.238,318.57,110.602,314.922,106.108,314.901z"/><path d="M428.727,180.761h-16.259c-4.512,0-8.17,3.657-8.17,8.17c0,4.499,3.636,8.146,8.13,8.168v81.172    c0,20.196-17.49,36.627-38.986,36.627c-21.491,0-38.974-16.431-38.974-36.627v-81.172c4.494-0.023,8.129-3.669,8.129-8.168    c0-4.513-3.658-8.17-8.17-8.17h-16.259c-4.512,0-8.17,3.657-8.17,8.17c0,4.499,3.636,8.146,8.13,8.168v81.172    c-0.001,29.207,24.813,52.967,55.314,52.967c30.507,0,55.327-23.761,55.327-52.967v-81.172c4.494-0.023,8.129-3.669,8.129-8.168    C436.897,184.418,433.239,180.761,428.727,180.761z"/><path d="M437.019,74.981C388.667,26.628,324.38,0,256,0S123.333,26.628,74.981,74.981S0,187.621,0,256    c0,47.358,12.994,93.473,37.618,133.632L0.419,501.247c-0.978,2.935-0.215,6.172,1.974,8.361C3.95,511.163,6.038,512,8.171,512    c0.864,0,1.735-0.137,2.583-0.419l111.614-37.198C162.527,499.006,208.642,512,256,512c62.11,0,122.017-22.533,168.685-63.448    c3.393-2.974,3.732-8.138,0.757-11.53s-8.136-3.732-11.53-0.757C370.226,474.566,314.145,495.66,256,495.66    c-45.56,0-89.889-12.844-128.193-37.143c-2.073-1.316-4.63-1.629-6.96-0.852l-99.76,33.248l33.248-99.76    c0.777-2.33,0.464-4.885-0.852-6.96C29.184,345.889,16.34,301.559,16.34,256c0-132.149,107.51-239.66,239.66-239.66    S495.66,123.851,495.66,256c0,58.147-21.093,114.227-59.394,157.913c-2.975,3.392-2.636,8.555,0.757,11.53    c3.392,2.974,8.555,2.636,11.529-0.757C489.468,378.018,512,318.112,512,256C512,187.621,485.372,123.333,437.019,74.981z"/></g><g transform="matrix(0.14306530580500876 -0.0383342331553637 0.0383342331553637 0.14306530580500876 132.15006893293827 150.23714703226275)" id="L1_74"><rect x="9px" y="113px" width="452px" height="19px"/><path d="M0,34.461v433.231h472.615V34.461H0z M19.692,448V54.154h433.231V448H19.692z"/><path d="M49.231,162.461v256h374.154v-256H49.231z M403.692,398.768H68.923V182.154h334.769V398.768z"/><rect x="384px" y="4px" width="19px" height="68px"/><rect x="305px" y="4px" width="19px" height="68px"/><rect x="226px" y="4px" width="19px" height="68px"/><rect x="147px" y="4px" width="19px" height="68px"/><rect x="68px" y="4px" width="19px" height="68px"/><rect x="157px" y="201px" width="19px" height="177px"/><path d="M295.385,241.231 295.385,290.461 228.431,290.461 246.154,203.815 226.462,199.877 204.8,310.154     295.385,310.154 295.385,379.076 315.077,379.076 315.077,241.231z"/></g><g transform="matrix(0.18379098824253035 0.04924664687570397 -0.04924664687570397 0.18379098824253035 318.1801690971501 294.8864777361889)" id="L1_75"><path d="M107.516,330.231c-11.815,0-22.646,3.938-30.523,10.831c-8.861-6.892-19.692-10.831-30.523-10.831    c-25.6,0-46.277,20.677-46.277,46.277c0,51.2,68.923,93.538,71.877,95.508c0.985,0.985,2.954,0.985,4.923,0.985    s2.954,0,4.924-0.985c2.954-1.969,71.877-41.354,71.877-95.508C153.793,350.908,133.116,330.231,107.516,330.231z M76.993,451.339    c-19.692-12.8-57.108-45.292-57.108-74.831c0-14.769,11.815-26.585,26.585-26.585c8.862,0,17.723,3.938,23.63,11.815    c2.954,4.923,11.815,4.923,15.754,0c4.923-7.877,12.8-11.815,21.662-11.815c14.769,0,26.585,11.815,26.585,26.585    C134.1,410.97,91.762,441.493,76.993,451.339z"/><path d="M426.531,268.2c-11.815,0-22.646,3.938-30.523,10.831c-8.862-6.892-19.692-10.831-30.523-10.831    c-25.6,0-46.277,20.677-46.277,46.277c0,51.2,68.923,93.538,71.877,95.508c0.985,0.985,2.954,0.985,4.923,0.985    s2.954,0,4.923-0.985c2.954-1.969,71.877-41.354,71.877-95.508C472.808,288.877,452.132,268.2,426.531,268.2z M396.008,389.308    C376.316,376.508,338.9,345,338.9,314.477c0-14.769,11.815-26.585,26.585-26.585c8.862,0,17.723,3.938,23.631,11.815    c1.969,1.969,4.923,3.938,7.877,3.938c2.954,0,5.908-0.985,7.877-3.938c4.923-7.877,12.8-11.815,21.661-11.815    c14.769,0,26.585,11.815,26.585,26.585C453.116,348.939,410.778,379.462,396.008,389.308z"/><path d="M468.87,2.355c-1.969-1.969-4.923-2.954-7.877-1.969L141.978,72.262c-4.923,0.985-7.877,4.923-7.877,9.846v298.338h19.692    V89.985l299.323-67.938V308.57h19.692V10.231C472.808,7.278,470.839,4.324,468.87,2.355z"/><rect x="139px" y="139px" width="326px" height="19px" transform="matrix(0.9755 -0.2202 0.2202 0.9755 -25.4043 70.4495)"/></g></defs><g fi:class="KUsePattern"><pattern id="pattern_L1_66" width="350" height="350" patternUnits="userSpaceOnUse"><use xlink:href="#L1_66" x="-350" y="-350"/><use xlink:href="#L1_66" x="0" y="-350"/><use xlink:href="#L1_66" x="350" y="-350"/><use xlink:href="#L1_66" x="-350" y="0"/><use xlink:href="#L1_66" x="0" y="0"/><use xlink:href="#L1_66" x="350" y="0"/><use xlink:href="#L1_66" x="-350" y="350"/><use xlink:href="#L1_66" x="0" y="350"/><use xlink:href="#L1_66" x="350" y="350"/></pattern><rect x="0" y="0" width="100%" height="100%" fill="url(#pattern_L1_66)"/></g><g fi:class="KUsePattern"><pattern id="pattern_L1_67" width="350" height="350" patternUnits="userSpaceOnUse"><use xlink:href="#L1_67" x="-350" y="-350"/><use xlink:href="#L1_67" x="0" y="-350"/><use xlink:href="#L1_67" x="350" y="-350"/><use xlink:href="#L1_67" x="-350" y="0"/><use xlink:href="#L1_67" x="0" y="0"/><use xlink:href="#L1_67" x="350" y="0"/><use xlink:href="#L1_67" x="-350" y="350"/><use xlink:href="#L1_67" x="0" y="350"/><use xlink:href="#L1_67" x="350" y="350"/></pattern><rect x="0" y="0" width="100%" height="100%" fill="url(#pattern_L1_67)"/></g><g fi:class="KUsePattern"><pattern id="pattern_L1_68" width="350" height="350" patternUnits="userSpaceOnUse"><use xlink:href="#L1_68" x="-350" y="-350"/><use xlink:href="#L1_68" x="0" y="-350"/><use xlink:href="#L1_68" x="350" y="-350"/><use xlink:href="#L1_68" x="-350" y="0"/><use xlink:href="#L1_68" x="0" y="0"/><use xlink:href="#L1_68" x="350" y="0"/><use xlink:href="#L1_68" x="-350" y="350"/><use xlink:href="#L1_68" x="0" y="350"/><use xlink:href="#L1_68" x="350" y="350"/></pattern><rect x="0" y="0" width="100%" height="100%" fill="url(#pattern_L1_68)"/></g><g fi:class="KUsePattern"><pattern id="pattern_L1_69" width="350" height="350" patternUnits="userSpaceOnUse"><use xlink:href="#L1_69" x="-350" y="-350"/><use xlink:href="#L1_69" x="0" y="-350"/><use xlink:href="#L1_69" x="350" y="-350"/><use xlink:href="#L1_69" x="-350" y="0"/><use xlink:href="#L1_69" x="0" y="0"/><use xlink:href="#L1_69" x="350" y="0"/><use xlink:href="#L1_69" x="-350" y="350"/><use xlink:href="#L1_69" x="0" y="350"/><use xlink:href="#L1_69" x="350" y="350"/></pattern><rect x="0" y="0" width="100%" height="100%" fill="url(#pattern_L1_69)"/></g><g fi:class="KUsePattern"><pattern id="pattern_L1_70" width="350" height="350" patternUnits="userSpaceOnUse"><use xlink:href="#L1_70" x="-350" y="-350"/><use xlink:href="#L1_70" x="0" y="-350"/><use xlink:href="#L1_70" x="350" y="-350"/><use xlink:href="#L1_70" x="-350" y="0"/><use xlink:href="#L1_70" x="0" y="0"/><use xlink:href="#L1_70" x="350" y="0"/><use xlink:href="#L1_70" x="-350" y="350"/><use xlink:href="#L1_70" x="0" y="350"/><use xlink:href="#L1_70" x="350" y="350"/></pattern><rect x="0" y="0" width="100%" height="100%" fill="url(#pattern_L1_70)"/></g><g fi:class="KUsePattern"><pattern id="pattern_L1_71" width="350" height="350" patternUnits="userSpaceOnUse"><use xlink:href="#L1_71" x="-350" y="-350"/><use xlink:href="#L1_71" x="0" y="-350"/><use xlink:href="#L1_71" x="350" y="-350"/><use xlink:href="#L1_71" x="-350" y="0"/><use xlink:href="#L1_71" x="0" y="0"/><use xlink:href="#L1_71" x="350" y="0"/><use xlink:href="#L1_71" x="-350" y="350"/><use xlink:href="#L1_71" x="0" y="350"/><use xlink:href="#L1_71" x="350" y="350"/></pattern><rect x="0" y="0" width="100%" height="100%" fill="url(#pattern_L1_71)"/></g><g fi:class="KUsePattern"><pattern id="pattern_L1_72" width="350" height="350" patternUnits="userSpaceOnUse"><use xlink:href="#L1_72" x="-350" y="-350"/><use xlink:href="#L1_72" x="0" y="-350"/><use xlink:href="#L1_72" x="350" y="-350"/><use xlink:href="#L1_72" x="-350" y="0"/><use xlink:href="#L1_72" x="0" y="0"/><use xlink:href="#L1_72" x="350" y="0"/><use xlink:href="#L1_72" x="-350" y="350"/><use xlink:href="#L1_72" x="0" y="350"/><use xlink:href="#L1_72" x="350" y="350"/></pattern><rect x="0" y="0" width="100%" height="100%" fill="url(#pattern_L1_72)"/></g><g fi:class="KUsePattern"><pattern id="pattern_L1_73" width="350" height="350" patternUnits="userSpaceOnUse"><use xlink:href="#L1_73" x="-350" y="-350"/><use xlink:href="#L1_73" x="0" y="-350"/><use xlink:href="#L1_73" x="350" y="-350"/><use xlink:href="#L1_73" x="-350" y="0"/><use xlink:href="#L1_73" x="0" y="0"/><use xlink:href="#L1_73" x="350" y="0"/><use xlink:href="#L1_73" x="-350" y="350"/><use xlink:href="#L1_73" x="0" y="350"/><use xlink:href="#L1_73" x="350" y="350"/></pattern><rect x="0" y="0" width="100%" height="100%" fill="url(#pattern_L1_73)"/></g><g fi:class="KUsePattern"><pattern id="pattern_L1_74" width="350" height="350" patternUnits="userSpaceOnUse"><use xlink:href="#L1_74" x="-350" y="-350"/><use xlink:href="#L1_74" x="0" y="-350"/><use xlink:href="#L1_74" x="350" y="-350"/><use xlink:href="#L1_74" x="-350" y="0"/><use xlink:href="#L1_74" x="0" y="0"/><use xlink:href="#L1_74" x="350" y="0"/><use xlink:href="#L1_74" x="-350" y="350"/><use xlink:href="#L1_74" x="0" y="350"/><use xlink:href="#L1_74" x="350" y="350"/></pattern><rect x="0" y="0" width="100%" height="100%" fill="url(#pattern_L1_74)"/></g><g fi:class="KUsePattern"><pattern id="pattern_L1_75" width="350" height="350" patternUnits="userSpaceOnUse"><use xlink:href="#L1_75" x="-350" y="-350"/><use xlink:href="#L1_75" x="0" y="-350"/><use xlink:href="#L1_75" x="350" y="-350"/><use xlink:href="#L1_75" x="-350" y="0"/><use xlink:href="#L1_75" x="0" y="0"/><use xlink:href="#L1_75" x="350" y="0"/><use xlink:href="#L1_75" x="-350" y="350"/><use xlink:href="#L1_75" x="0" y="350"/><use xlink:href="#L1_75" x="350" y="350"/></pattern><rect x="0" y="0" width="100%" height="100%" fill="url(#pattern_L1_75)"/></g></svg>