<svg xmlns="http://www.w3.org/2000/svg" xmlns:xlink="http://www.w3.org/1999/xlink" xmlns:fi="http://pattern.flaticon.com/" x="0" y="0" width="2161" height="1081" viewBox="0 0 7563.5 3783.5"><rect x="0px" y="0px" width="100%" height="100%" opacity="0" fill="#ffffff"/><defs><g transform="matrix(0.09765625 0 0 0.09765625 62.5 150)" id="L1_108"><path d="M509.697,166.405c-4.857-13-16.847-22.632-35.637-28.627c-16.762-5.348-38.561-7.691-64.786-6.963  c-52.999,1.471-118.885,15.296-185.523,38.925C114.487,208.485,26.673,265.736,5.237,312.199c-5.8,12.573-6.788,24.178-2.934,34.493  c4.857,13,16.847,22.632,35.637,28.626c14.774,4.714,33.455,7.092,55.635,7.092c2.986,0,6.039-0.043,9.151-0.129  c52.999-1.471,118.885-15.296,185.523-38.925c109.265-38.745,197.079-95.996,218.515-142.459  C512.564,188.324,513.551,176.719,509.697,166.405z M493.555,194.676c-19.574,42.43-105.984,97.856-210.133,134.788  c-65.251,23.138-129.566,36.669-181.096,38.099c-48.216,1.336-79.7-8.164-86.39-26.07c-2.416-6.466-1.572-14.229,2.508-23.073  c19.575-42.43,105.984-97.857,210.133-134.788c65.251-23.138,129.566-36.669,181.096-38.099c2.999-0.083,5.928-0.125,8.796-0.125  c43.233,0,71.321,9.402,77.595,26.195C498.48,178.07,497.636,185.832,493.555,194.676z M219.29,144.437  c-1.333-3.837,0.665-8.038,4.462-9.384c73.44-26.042,146.862-40.243,201.456-38.974c4.023,0.094,7.209,3.465,7.116,7.529  c-0.093,4.065-3.402,7.299-7.453,7.19c-52.896-1.24-124.446,12.67-196.293,38.147c-0.798,0.283-1.613,0.417-2.413,0.417  C223.157,149.362,220.342,147.467,219.29,144.437z M344.295,346.666c1.594,3.733-0.109,8.065-3.803,9.676  c-16.83,7.337-34.407,14.264-52.244,20.589C217.176,402.134,147.763,416,94.058,416c-6.674,0-13.099-0.214-19.261-0.647  c-4.014-0.282-7.042-3.799-6.763-7.855s3.76-7.11,7.774-6.833c53.044,3.727,130.661-10.339,207.614-37.626  c17.518-6.212,34.776-13.014,51.296-20.216C338.413,341.212,342.701,342.932,344.295,346.666z" fill="#5bdee3"/><path d="M186.314,165.648c18.713,18.944,21.616,48.627,6.936,70.919l0,0  c-18.961,27.615-43.147,51.147-71.156,69.23l-15.655,10.107c-3.142,2.028-7.16,2.028-10.302,0l-15.655-10.107  c-28.009-18.084-52.195-41.615-71.156-69.23l0,0c-14.679-22.292-11.776-51.974,6.936-70.919l0,0  c20.761-21.018,54.421-21.018,75.182,0l3.07,3.108c3.741,3.788,9.807,3.788,13.548,0l3.07-3.108  C131.893,144.629,165.553,144.629,186.314,165.648L186.314,165.648z M495.739,211.462L495.739,211.462  c-20.761-21.018-54.421-21.018-75.182,0l-3.07,3.108c-3.741,3.788-9.807,3.788-13.548,0l-3.07-3.108  c-20.761-21.018-54.421-21.018-75.182,0l0,0c-18.713,18.944-21.616,48.627-6.936,70.919l0,0  c18.961,27.615,43.147,51.147,71.156,69.23l15.655,10.107c3.142,2.028,7.16,2.028,10.302,0l15.655-10.107  c28.009-18.084,52.195-41.615,71.156-69.23l0,0C517.355,260.089,514.451,230.407,495.739,211.462z" fill="#ff4040"/><path d="M99.557,317.246c-1.194-0.222-2.359-0.656-3.421-1.342l-15.655-10.107  c-28.009-18.084-52.195-41.615-71.156-69.23l0,0c-14.679-22.292-11.776-51.974,6.936-70.919l0,0  c15.318-15.507,37.653-19.559,56.652-12.183c-8.759,3.088-16.984,8.172-23.981,15.257l0,0  c-22.361,22.638-25.831,58.109-8.289,84.747l0,0C57.171,277.54,77.035,299,99.557,317.246z M350.068,299.283L350.068,299.283  c-17.542-26.639-14.073-62.109,8.289-84.747l0,0c6.998-7.085,15.223-12.169,23.981-15.257c-19-7.375-41.335-3.324-56.652,12.183l0,0  c-18.713,18.944-21.616,48.627-6.936,70.919l0,0c18.961,27.615,43.147,51.147,71.156,69.231l15.655,10.107  c1.062,0.685,2.227,1.119,3.421,1.342C386.46,344.815,366.596,323.355,350.068,299.283z" fill="#ed3c3c"/><path d="M206.836,273.525l-11.68,6.467c-1.678,0.929-3.057,2.326-3.975,4.024l-6.388,11.825  c-3.793,7.021-13.754,7.021-17.547,0l-6.388-11.825c-0.918-1.699-2.297-3.095-3.975-4.024l-11.68-6.467  c-6.935-3.84-6.935-13.924,0-17.765l11.68-6.467c1.678-0.929,3.057-2.326,3.975-4.024l6.388-11.825  c3.793-7.021,13.754-7.021,17.547,0l6.388,11.825c0.918,1.699,2.297,3.095,3.975,4.024l11.68,6.467  C213.771,259.6,213.771,269.685,206.836,273.525z M506.798,374.067l-7.246-4.012c-1.678-0.929-3.057-2.326-3.975-4.024l-3.963-7.336  c-3.793-7.021-13.754-7.021-17.547,0l-3.963,7.336c-0.918,1.699-2.297,3.095-3.975,4.024l-7.246,4.012  c-6.936,3.84-6.936,13.924,0,17.764l7.246,4.012c1.678,0.929,3.057,2.326,3.975,4.024l3.963,7.336  c3.793,7.021,13.754,7.021,17.547,0l3.963-7.336c0.918-1.699,2.297-3.095,3.975-4.024l7.246-4.012  C513.734,387.991,513.734,377.906,506.798,374.067z" fill="#ffdc64"/></g><g transform="matrix(0.09765625 0 0 0.09765625 150 325)" id="L1_109"><path d="M452.422,70.25l-64-64L382.172,0h-8.844H74.672H53.328v21.336v469.336V512h21.344h362.656h21.344v-21.328V85.336v-8.844    L452.422,70.25z M384,32l42.672,42.664H384V32z M437.328,490.672H74.672V21.336h288V96h74.656V490.672z"/><path d="M384,277.328H128c-5.891,0-10.672,4.781-10.672,10.672s4.781,10.656,10.672,10.656h256    c5.891,0,10.672-4.766,10.672-10.656S389.891,277.328,384,277.328z"/><path d="M384,341.344H128c-5.891,0-10.672,4.766-10.672,10.656s4.781,10.656,10.672,10.656h256    c5.891,0,10.672-4.766,10.672-10.656S389.891,341.344,384,341.344z"/><path d="M266.656,405.344H128c-5.891,0-10.672,4.766-10.672,10.656s4.781,10.656,10.672,10.656h138.656    c5.906,0,10.688-4.766,10.688-10.656S272.562,405.344,266.656,405.344z"/><path d="M215.311,79c-9.281,0-18.125,2.688-25.672,7.695C182.094,81.688,173.234,79,163.953,79    c-25.703,0-46.625,20.914-46.625,46.625c0,20.156,11.531,40.937,34.281,61.789c16.062,14.734,31.984,24.07,32.656,24.461    l5.375,3.141l5.359-3.141c0.688-0.391,16.594-9.727,32.656-24.461c22.75-20.852,34.281-41.633,34.281-61.789    C261.936,99.914,241.014,79,215.311,79z M189.639,190.102c-18.016-11.812-50.969-38.75-50.969-64.477    c0.002-13.953,11.346-25.297,25.283-25.297c6.859,0,13.266,2.703,18.062,7.602l7.625,7.773l7.609-7.773    c4.797-4.898,11.219-7.602,18.062-7.602c13.938,0,25.281,11.344,25.281,25.297C240.592,151.352,207.639,178.289,189.639,190.102z"/></g><path d="M212.79,397.817l-5.576-4.975c-4.519-4.024-11.201-11.234-21.329-22.142    c-25.044-26.962-71.645-93.422-151.777-166.498l-1.528-1.479l-0.041,0.049l-2.032-2.113C10.9,181.361,0,156.032,0,129.541    C0,71.82,51.129,24.869,113.971,24.869c49.162,0,86.602,49.909,96.901,65.207l1.211-0.285    c10.023-15.013,47.455-64.923,96.641-64.923c62.834,0,113.963,46.951,113.963,104.672c0,29.206-12.957,56.404-36.481,76.628    l-0.39,0.415c-83.57,76.238-127.456,141.722-151.037,168.164c-7.747,8.689-12.868,14.428-16.558,17.932L212.79,397.817z     M44.228,191.424l0.829,0.756c80.635,73.539,127.537,140.324,152.744,167.465c5.942,6.405,10.852,11.689,14.656,15.607    c2.772-3.008,6.17-6.82,10.185-11.323c23.776-26.662,68.02-92.56,151.809-168.969l0.87-0.886    c20.069-17.111,31.108-40.033,31.108-64.533c0-48.755-43.837-88.415-97.714-88.415c-32.693,0-64.533,29.978-83.432,58.03    c-2.934,4.398-8.161,7.031-13.949,7.031c-5.788,0-11.006-2.634-13.965-7.047c-18.883-28.035-50.714-58.014-83.407-58.014    c-53.876,0-97.706,39.659-97.706,88.415c0,22.102,9.177,43.317,25.849,59.729l1.162,1.219l-5.154,6.365l5.747-5.747    C43.976,191.204,44.098,191.318,44.228,191.424L44.228,191.424z M38.115,196.854l-5.487,5.828l3.089-2.642L38.115,196.854z" transform="matrix(0.11829111725091934 0 0 0.11829111725091934 237.5 150)" fill="#010002" id="L1_110"/><g transform="matrix(0.1367235630750656 0 0 0.1367235630750656 315 315)" id="L1_111"><path d="M388.388,70.247 324.391,6.25 318.141,0 309.329,0 31.986,0 10.659,0 10.659,21.343   10.659,490.671 10.659,511.982 31.986,511.982 373.327,511.982 394.638,511.982 394.638,490.671 394.638,85.341 394.638,76.497z" fill="#e6e9ed"/><g><path d="M85.328,298.677h234.656c5.875,0,10.655-4.781,10.655-10.687c0-5.875-4.78-10.656-10.655-10.656   H85.328c-5.905,0-10.671,4.781-10.671,10.656C74.658,293.895,79.424,298.677,85.328,298.677z" fill="#434a54"/><path d="M319.984,341.332H85.328c-5.905,0-10.671,4.781-10.671,10.655c0,5.906,4.766,10.688,10.671,10.688   h234.656c5.875,0,10.655-4.781,10.655-10.688C330.639,346.113,325.859,341.332,319.984,341.332z" fill="#434a54"/><path d="M202.652,405.329H85.328c-5.905,0-10.671,4.781-10.671,10.656c0,5.906,4.766,10.688,10.671,10.688   h117.324c5.891,0,10.672-4.781,10.672-10.688C213.324,410.11,208.543,405.329,202.652,405.329z" fill="#434a54"/></g><path d="M472.824,341.113 444.48,341.113 415.982,440.673 458.637,469.108 501.322,440.673z" fill="#e6e9ed"/><path d="M458.637,63.779c-23.562,0-42.654,19.093-42.654,42.654v287.99h85.34v-287.99  C501.322,82.872,482.199,63.779,458.637,63.779z" fill="#656d78"/><path d="M394.638,76.497 318.141,76.497 318.141,0z" fill="#ccd1d9"/><path d="M172.645,82.45c-9.288,0-18.132,2.688-25.687,7.688c-7.547-5-16.397-7.688-25.679-7.688  c-25.702,0-46.615,20.905-46.615,46.623c0,20.141,11.53,40.937,34.271,61.779c16.07,14.734,31.983,24.077,32.655,24.468l5.375,3.141  l5.367-3.141c0.672-0.391,16.585-9.733,32.655-24.468c22.741-20.843,34.272-41.639,34.272-61.779  C219.261,103.355,198.347,82.45,172.645,82.45z" fill="#ed5564"/><path d="M172.645,82.45c-3.656,0-7.249,0.422-10.718,1.234  c20.608,4.812,36.006,23.327,36.006,45.389c0,20.141-11.538,40.937-34.279,61.779c-10.656,9.781-21.242,17.172-27.358,21.155  c3.108,2.031,5.069,3.188,5.296,3.312l5.375,3.141l5.367-3.141c0.672-0.391,16.585-9.733,32.655-24.468  c22.741-20.843,34.272-41.639,34.272-61.779C219.261,103.355,198.347,82.45,172.645,82.45z" opacity="0.2" fill="#ffffff"/></g></defs><g fi:class="KUsePattern"><pattern id="pattern_L1_108" width="350" height="350" patternUnits="userSpaceOnUse"><use xlink:href="#L1_108" x="-350" y="-350"/><use xlink:href="#L1_108" x="0" y="-350"/><use xlink:href="#L1_108" x="350" y="-350"/><use xlink:href="#L1_108" x="-350" y="0"/><use xlink:href="#L1_108" x="0" y="0"/><use xlink:href="#L1_108" x="350" y="0"/><use xlink:href="#L1_108" x="-350" y="350"/><use xlink:href="#L1_108" x="0" y="350"/><use xlink:href="#L1_108" x="350" y="350"/></pattern><rect x="0" y="0" width="100%" height="100%" fill="url(#pattern_L1_108)"/></g><g fi:class="KUsePattern"><pattern id="pattern_L1_109" width="350" height="350" patternUnits="userSpaceOnUse"><use xlink:href="#L1_109" x="-350" y="-350"/><use xlink:href="#L1_109" x="0" y="-350"/><use xlink:href="#L1_109" x="350" y="-350"/><use xlink:href="#L1_109" x="-350" y="0"/><use xlink:href="#L1_109" x="0" y="0"/><use xlink:href="#L1_109" x="350" y="0"/><use xlink:href="#L1_109" x="-350" y="350"/><use xlink:href="#L1_109" x="0" y="350"/><use xlink:href="#L1_109" x="350" y="350"/></pattern><rect x="0" y="0" width="100%" height="100%" fill="url(#pattern_L1_109)"/></g><g fi:class="KUsePattern"><pattern id="pattern_L1_110" width="350" height="350" patternUnits="userSpaceOnUse"><use xlink:href="#L1_110" x="-350" y="-350"/><use xlink:href="#L1_110" x="0" y="-350"/><use xlink:href="#L1_110" x="350" y="-350"/><use xlink:href="#L1_110" x="-350" y="0"/><use xlink:href="#L1_110" x="0" y="0"/><use xlink:href="#L1_110" x="350" y="0"/><use xlink:href="#L1_110" x="-350" y="350"/><use xlink:href="#L1_110" x="0" y="350"/><use xlink:href="#L1_110" x="350" y="350"/></pattern><rect x="0" y="0" width="100%" height="100%" fill="url(#pattern_L1_110)"/></g><g fi:class="KUsePattern"><pattern id="pattern_L1_111" width="350" height="350" patternUnits="userSpaceOnUse"><use xlink:href="#L1_111" x="-350" y="-350"/><use xlink:href="#L1_111" x="0" y="-350"/><use xlink:href="#L1_111" x="350" y="-350"/><use xlink:href="#L1_111" x="-350" y="0"/><use xlink:href="#L1_111" x="0" y="0"/><use xlink:href="#L1_111" x="350" y="0"/><use xlink:href="#L1_111" x="-350" y="350"/><use xlink:href="#L1_111" x="0" y="350"/><use xlink:href="#L1_111" x="350" y="350"/></pattern><rect x="0" y="0" width="100%" height="100%" fill="url(#pattern_L1_111)"/></g></svg>