<svg xmlns="http://www.w3.org/2000/svg" xmlns:xlink="http://www.w3.org/1999/xlink" xmlns:fi="http://pattern.flaticon.com/" x="0" y="0" width="2160" height="1080" viewBox="0 0 2160 1080"><rect x="0px" y="0px" width="100%" height="100%" opacity="1" fill="#ffffff"/><defs><g transform="matrix(0.10752688348293304 0 0 0.10752688348293304 237.5 150)" id="L1_15"><path d="M421.133,49.309h-14.396c-2.939,0-5.608-1.717-6.826-4.393c-2.978-6.541-9.537-10.767-16.713-10.767   h-18.356v143.303c0,18.133-14.196,32.775-32.319,33.333c-2.864,0.098-5.539-1.471-6.873-4.014   c-14.826-28.279-42.391-48.287-73.736-53.519c-3.615-0.604-6.265-3.732-6.265-7.397c0-9.999-2.379-19.449-6.581-27.833   c-12.747,16.899-32.978,27.834-55.777,27.834c-22.8,0-43.031-10.935-55.778-27.834c-4.201,8.385-6.581,17.834-6.581,27.834   c0,3.666-2.649,6.794-6.266,7.397c-49.478,8.259-85.389,50.721-85.389,100.966c0,9.095,7.398,16.494,16.493,16.494h19.314   c4.143,0,7.5,3.358,7.5,7.5v68.412c18.65-3.524,32.801-19.941,32.801-39.601v-28.811c0-4.142,3.357-7.5,7.5-7.5h166.135   c4.143,0,7.5,3.358,7.5,7.5v68.412c18.65-3.524,32.801-19.941,32.801-39.601v-28.811c0-4.142,3.357-7.5,7.5-7.5h30.323   c24.488,0,44.411-19.922,44.411-44.411V85.99c0-4.142,3.357-7.5,7.5-7.5h12.077c8.045,0,14.59-6.545,14.59-14.591   C435.723,55.854,429.178,49.309,421.133,49.309z M98.523,207.348c-4.411,0-8-3.589-8-8s3.589-8,8-8s8,3.589,8,8   S102.935,207.348,98.523,207.348z M127.247,236.072c-4.411,0-8-3.589-8-8s3.589-8,8-8s8,3.589,8,8S131.658,236.072,127.247,236.072   z" fill="#ff9926"/><path d="M183.291,145.855c22.799,0,43.03-10.935,55.777-27.834c-10.245-20.447-31.393-34.524-55.778-34.524   c-24.385,0-45.532,14.077-55.778,34.524C140.26,134.92,160.491,145.855,183.291,145.855z" fill="#fecc33"/><path d="M127.247,220.072c-4.411,0-8,3.589-8,8s3.589,8,8,8s8-3.589,8-8S131.658,220.072,127.247,220.072z"/><path d="M98.523,191.348c-4.411,0-8,3.589-8,8s3.589,8,8,8s8-3.589,8-8S102.935,191.348,98.523,191.348z"/><path d="M421.133,34.309h-9.984c-6.095-9.344-16.598-15.16-27.95-15.16h-18.356V7.5c0-4.142-3.357-7.5-7.5-7.5s-7.5,3.358-7.5,7.5   v169.952c0,8.489-5.654,15.587-13.482,17.705c-16.462-28.18-44.24-48.474-75.959-55.529c-3.182-39.755-36.551-71.131-77.11-71.131   s-73.929,31.374-77.11,71.129c-24.718,5.484-47.185,18.955-63.779,38.364c-18.136,21.212-28.123,48.283-28.123,76.228v100.605   c0,4.142,3.357,7.5,7.5,7.5s7.5-3.358,7.5-7.5v-73.79c4.8,2.964,10.449,4.678,16.493,4.678h11.814V457.5c0,4.142,3.357,7.5,7.5,7.5   s7.5-3.358,7.5-7.5v-95.7c26.957-3.673,47.801-26.83,47.801-54.778v-21.311h151.135V457.5c0,4.142,3.357,7.5,7.5,7.5   s7.5-3.358,7.5-7.5v-95.7c26.957-3.673,47.801-26.83,47.801-54.778v-21.311h22.823c32.76,0,59.411-26.651,59.411-59.411V93.49   h4.577c16.315,0,29.59-13.274,29.59-29.591C450.723,47.583,437.448,34.309,421.133,34.309z M421.133,78.49h-12.077   c-4.143,0-7.5,3.358-7.5,7.5v140.311c0,24.488-19.923,44.411-44.411,44.411h-30.323c-4.143,0-7.5,3.358-7.5,7.5v28.811   c0,19.66-14.15,36.077-32.801,39.601v-68.412c0-4.142-3.357-7.5-7.5-7.5H112.886c-4.143,0-7.5,3.358-7.5,7.5v28.811   c0,19.66-14.15,36.077-32.801,39.601v-68.412c0-4.142-3.357-7.5-7.5-7.5H45.771c-9.095,0-16.493-7.399-16.493-16.494   c0-50.245,35.911-92.707,85.389-100.966c3.616-0.604,6.266-3.732,6.266-7.397c0-10,2.379-19.449,6.581-27.834   c10.245-20.447,31.393-34.524,55.778-34.524c24.385,0,45.532,14.077,55.778,34.524c4.201,8.385,6.581,17.834,6.581,27.833   c0,3.666,2.649,6.794,6.265,7.397c31.346,5.232,58.91,25.24,73.736,53.519c1.334,2.543,4.009,4.112,6.873,4.014   c18.123-0.558,32.319-15.2,32.319-33.333V34.149h18.356c7.176,0,13.735,4.227,16.713,10.767c1.218,2.676,3.887,4.393,6.826,4.393   h14.396c8.045,0,14.59,6.545,14.59,14.59C435.723,71.945,429.178,78.49,421.133,78.49z"/></g><g transform="matrix(0.15021459758281708 0 0 0.15021459758281708 315 315)" id="L1_16"><path d="M114.812,130.5c0-4.143,3.357-7.5,7.5-7.5c2.063,0,3.931,0.833,5.287,2.181l35.624-35.817   c-1.482-1.476-2.335-3.548-2.201-5.766c0.848-13.975,1.277-29.484,1.277-46.099V15h-105v22.5   c0,113.186,18.787,156.548,58.258,205.692c0.005,0.006,0.01,0.013,0.016,0.02c0.024,0.03,0.048,0.06,0.072,0.09   c8.616,10.72,19.643,21.438,31.316,32.786c29.343,28.523,63.911,62.138,80.492,114.912h16.913v-58.049c0-4.143,3.357-7.5,7.5-7.5   c1.652,0,3.174,0.54,4.413,1.445c5.005-3.703,9.868-7.689,14.557-11.976C182.415,300.117,114.812,223.061,114.812,130.5z    M102.3,67.5c0-12.406-10.094-22.5-22.5-22.5c-4.143,0-7.5-3.357-7.5-7.5s3.357-7.5,7.5-7.5c12.253,0,23.152,5.907,30,15.023   C116.648,35.907,127.547,30,139.8,30c4.143,0,7.5,3.357,7.5,7.5s-3.357,7.5-7.5,7.5c-12.406,0-22.5,10.094-22.5,22.5   c0,4.143-3.357,7.5-7.5,7.5S102.3,71.643,102.3,67.5z" fill="#ffffff"/><path d="M188.898,391v-45.437c-13.671-20.14-29.996-36.836-45.918-52.411   c12.522,25.155,23.989,55.227,29.973,97.849H188.898z" fill="#00e4c5"/><path d="M129.812,130.5c0,94.841,77.159,172,172,172c6.462,0,12.93-0.361,19.335-1.077L187.916,104.549   c-4.322-6.386-12.155-11.305-20.952-13.157c-1.464-0.308-2.743-1.034-3.74-2.027l-35.624,35.817   C128.965,126.54,129.812,128.421,129.812,130.5z" fill="#ff9926"/><path d="M117.3,67.5c0-12.406,10.094-22.5,22.5-22.5c4.143,0,7.5-3.357,7.5-7.5s-3.357-7.5-7.5-7.5   c-12.253,0-23.152,5.907-30,15.023C102.953,35.907,92.053,30,79.8,30c-4.143,0-7.5,3.357-7.5,7.5s3.357,7.5,7.5,7.5   c12.406,0,22.5,10.094,22.5,22.5c0,4.143,3.357,7.5,7.5,7.5S117.3,71.643,117.3,67.5z"/><path d="M422.411,424.297L200.338,96.142c-5.44-8.039-13.984-14.288-24.005-17.705c0.642-12.645,0.967-26.383,0.967-40.937v-30   c0-4.143-3.357-7.5-7.5-7.5h-120c-4.143,0-7.5,3.357-7.5,7.5v30c0,57.634,5.026,100.198,15.819,133.955   c11.204,35.041,28.415,59.516,45.405,80.706c3.173,5.901,6.513,11.827,9.749,17.563c18.762,33.257,38.02,67.4,45.635,128.945   c0.011,0.503,0.07,0.993,0.176,1.467c1.819,15.173,2.938,31.993,3.171,50.864h-52.454c-4.143,0-7.5,3.357-7.5,7.5   s3.357,7.5,7.5,7.5h60h60c4.143,0,7.5-3.357,7.5-7.5c0-19.311-2.089-36.706-5.754-52.5h20.321c4.143,0,7.5-3.357,7.5-7.5v-65.549   c0-2.491-1.219-4.691-3.087-6.055c-1.239-0.905-2.761-1.445-4.413-1.445c-4.143,0-7.5,3.357-7.5,7.5V391h-16.913   c-16.582-52.774-51.15-86.389-80.492-114.912c-11.674-11.348-22.7-22.066-31.316-32.786c-0.024-0.03-0.048-0.06-0.072-0.09   c-0.005-0.006-0.01-0.013-0.016-0.02C76.087,194.048,57.299,150.686,57.299,37.5V15h105v22.5c0,16.614-0.43,32.124-1.277,46.099   c-0.134,2.218,0.72,4.29,2.201,5.766c0.997,0.994,2.276,1.719,3.74,2.027c8.797,1.853,16.63,6.771,20.952,13.157l133.232,196.875   c-6.405,0.715-12.873,1.077-19.335,1.077c-94.841,0-172-77.159-172-172c0-2.079-0.847-3.96-2.213-5.319   c-1.356-1.348-3.224-2.181-5.287-2.181c-4.143,0-7.5,3.357-7.5,7.5c0,92.561,67.603,169.617,156.025,184.42   c10.079,1.688,20.424,2.58,30.975,2.58c9.625,0,19.265-0.744,28.726-2.201l79.451,117.404c2.321,3.432,6.984,4.331,10.414,2.008   C423.834,432.39,424.733,427.727,422.411,424.297z M188.898,345.563V391h-15.945c-5.984-42.622-17.451-72.693-29.973-97.849   C158.902,308.727,175.227,325.423,188.898,345.563z M177.248,451c-0.203-16.354-1.068-31.286-2.477-45h21.627   c4.143,0,7.5-3.357,7.5-7.5v-26.824c4.119,8.688,7.695,17.986,10.572,28.015c0.098,0.612,0.262,1.201,0.498,1.754   c4.094,14.811,6.668,31.201,7.22,49.556H177.248z"/></g><g transform="matrix(0.10752688348293304 0 0 0.10752688348293304 62.5 150)" id="L1_17"><path d="M330.81,267.789c0.984-7.167,1.945-14.166,2.876-20.694v-8.909l-73.062,7.69v54.159   c0,4.143-3.357,7.5-7.5,7.5s-7.5-3.357-7.5-7.5v-60.911c0-3.838,2.897-7.057,6.715-7.459l81.347-8.563v-22.736   c-18.34,1.742-63.684,5.65-101.313,5.65s-82.973-3.908-101.313-5.65v22.736l81.347,8.563c4.119,0.434,7.107,4.125,6.674,8.244   c-0.405,3.853-3.66,6.716-7.45,6.716c-0.263,0-0.527-0.014-0.794-0.042l-79.776-8.397v8.907c0.931,6.533,1.893,13.537,2.878,20.708   c3.267,23.809,6.971,50.794,10.442,65.848c9.866,42.778,45.229,71.521,87.993,71.521c42.766,0,78.127-28.742,87.993-71.521   C323.839,318.593,327.542,291.603,330.81,267.789z M256.832,351.593h-48.92c-4.143,0-7.5-3.357-7.5-7.5s3.357-7.5,7.5-7.5h7.396   c-0.932-2.639-0.35-5.692,1.76-7.804c2.93-2.928,7.678-2.928,10.607,0l4.696,4.697l4.696-4.697c2.93-2.928,7.678-2.928,10.607,0   c2.111,2.111,2.692,5.165,1.76,7.804h7.396c4.143,0,7.5,3.357,7.5,7.5S260.975,351.593,256.832,351.593z" fill="#ff9926"/><path d="M124.352,184.63c0.601,0.063,60.649,6.387,108.021,6.387c47.372,0,107.42-6.323,108.021-6.387   c2.113-0.223,4.227,0.458,5.809,1.882c1.581,1.422,2.484,3.449,2.484,5.576v37.735c0,0.01,0,0.019,0,0.029V410h56.937V207.76   c0-17.063-2.572-33.706-7.358-49.512H260.128l-0.156,2.956c-0.211,3.982-3.501,7.104-7.489,7.104h-39.965   c-3.988,0-7.278-3.121-7.489-7.104l-0.156-2.956H66.481c-4.787,15.804-7.359,32.447-7.359,49.512V410h56.937V229.852   c0-0.01,0-0.019,0-0.029v-37.735c0-2.127,0.903-4.154,2.484-5.576C120.125,185.09,122.238,184.407,124.352,184.63z" fill="#4c4c4c"/><rect x="59px" y="425px" width="56px" height="25px" fill="#fecc33"/><rect x="348px" y="425px" width="56px" height="25px" fill="#ff9926"/><path d="M199.861,63.66l-11.248-23.527c-34.436,8.979-64.435,28.369-86.863,54.268h77.694   c4.142,0,7.499,3.357,7.5,7.499h14.943L199.861,63.66z" fill="#4c4c4c"/><path d="M263.113,101.9h14.944c0.001-4.142,3.358-7.499,7.5-7.499h77.459   c-22.377-25.865-52.296-45.247-86.635-54.257L265.139,63.66L263.113,101.9z" fill="#4c4c4c"/><path d="M260.923,143.248h132.043c-4.857-11.955-11.025-23.303-18.328-33.847h-89.081   c-4.143,0-7.5-3.357-7.5-7.5V101.9h-14.944L260.923,143.248z" fill="#ff9926"/><path d="M204.077,143.248l-2.19-41.348h-14.943v0.001c0,4.143-3.357,7.5-7.5,7.5H90.119   c-7.307,10.543-13.478,21.89-18.338,33.847H204.077z" fill="#fecc33"/><path d="M232.372,54.272c4.143,0,7.5,3.357,7.5,7.5s-3.357,7.5-7.5,7.5h-17.193l4.452,84.035h25.738   l4.87-91.932c0.052-0.984,0.298-1.949,0.723-2.839l13.741-28.741c-0.359-8.435-3.547-10.954-6.976-12.381   C251.928,15,242.509,15,232.537,15h-0.112c-24.672,0-31.636,1.494-32.132,14.787l11.706,24.485H232.372z" fill="#fecc33"/><path d="M256.832,336.593h-7.396c0.932-2.639,0.35-5.692-1.76-7.804c-2.93-2.928-7.678-2.928-10.607,0l-4.696,4.697l-4.696-4.697   c-2.93-2.928-7.678-2.928-10.607,0c-2.111,2.111-2.692,5.165-1.76,7.804h-7.396c-4.143,0-7.5,3.357-7.5,7.5s3.357,7.5,7.5,7.5   h48.92c4.143,0,7.5-3.357,7.5-7.5S260.975,336.593,256.832,336.593z"/><path d="M421.26,150.748c0-4.143-3.357-7.5-7.5-7.5h-4.571c-4.431-12.156-10.103-23.857-16.948-34.884   c2.216-1.303,3.708-3.706,3.708-6.463c0-4.143-3.357-7.5-7.5-7.5h-5.782c-1.269-1.682-2.559-3.35-3.886-4.991   c-25.423-31.417-60.567-53.987-99.433-63.993c-1.398-10.695-6.704-18.04-15.855-21.85C254.925,0,243.995,0,232.481,0   C220.98,0,210.06,0,201.49,3.573c-9.138,3.811-14.437,11.15-15.836,21.833c-38.932,9.962-74.139,32.511-99.611,63.933   c-1.349,1.664-2.659,3.356-3.947,5.063h-5.801c-4.143,0-7.5,3.357-7.5,7.5c0,2.761,1.495,5.166,3.716,6.468   c-6.847,11.024-12.521,22.723-16.953,34.878H51.24c-4.143,0-7.5,3.357-7.5,7.5c0,3.991,3.119,7.244,7.052,7.477   c-4.385,16.057-6.67,32.721-6.67,49.534v209.702c0,0.013-0.002,0.025-0.002,0.039s0.002,0.026,0.002,0.039V457.5   c0,4.143,3.357,7.5,7.5,7.5h81.937c4.143,0,7.5-3.357,7.5-7.5s-3.357-7.5-7.5-7.5h-2.5v-32.481c0-0.007,0.001-0.013,0.001-0.019   s-0.001-0.013-0.001-0.019v-75.405c6.078,21.835,18.238,40.673,35.399,54.715c18.691,15.294,41.484,23.378,65.914,23.378   s47.223-8.084,65.914-23.378c17.163-14.043,29.323-32.883,35.399-54.717V450h-2.5c-4.143,0-7.5,3.357-7.5,7.5s3.357,7.5,7.5,7.5   h81.937c4.143,0,7.5-3.357,7.5-7.5V207.76c0-16.807-2.283-33.467-6.665-49.522C418.008,158.132,421.26,154.824,421.26,150.748z    M276.382,40.145c34.339,9.01,64.258,28.392,86.635,54.257h-77.459c-4.142,0-7.499,3.357-7.5,7.499v0.001   c0,4.143,3.357,7.5,7.5,7.5h89.081c7.302,10.544,13.47,21.892,18.328,33.847H260.923l2.19-41.348l2.026-38.24L276.382,40.145z    M232.425,15h0.112c9.972,0,19.391,0,25.19,2.415c3.429,1.427,6.616,3.946,6.976,12.381l-13.741,28.741   c-0.425,0.89-0.671,1.854-0.723,2.839l-4.87,91.932h-25.738l-4.452-84.035h17.193c4.143,0,7.5-3.357,7.5-7.5s-3.357-7.5-7.5-7.5   h-20.373l-11.706-24.485C200.789,16.494,207.753,15,232.425,15z M90.119,109.401h89.326c4.143,0,7.5-3.357,7.5-7.5V101.9   c-0.001-4.142-3.358-7.499-7.5-7.499H101.75c22.427-25.899,52.427-45.289,86.863-54.268l11.248,23.527l2.026,38.24l2.19,41.348   H71.781C76.641,131.292,82.812,119.944,90.119,109.401z M116.059,450H59.122v-25h56.937V450z M333.686,223.102l-81.347,8.563   c-3.817,0.402-6.715,3.621-6.715,7.459v60.911c0,4.143,3.357,7.5,7.5,7.5s7.5-3.357,7.5-7.5v-54.159l73.062-7.69v8.909   c-0.931,6.529-1.892,13.528-2.876,20.694c-3.268,23.813-6.971,50.804-10.444,65.859c-9.866,42.778-45.228,71.521-87.993,71.521   c-42.765,0-78.127-28.742-87.993-71.521c-3.472-15.054-7.176-42.039-10.442-65.848c-0.985-7.171-1.947-14.175-2.878-20.708v-8.907   l79.776,8.397c0.267,0.028,0.531,0.042,0.794,0.042c3.79,0,7.045-2.863,7.45-6.716c0.434-4.119-2.555-7.811-6.674-8.244   l-81.347-8.563v-22.736c18.341,1.742,63.684,5.65,101.313,5.65s82.974-3.908,101.313-5.65V223.102z M405.622,450h-56.937v-25   h56.937V450z M405.622,410h-56.937V229.852c0-0.01,0-0.019,0-0.029v-37.735c0-2.127-0.903-4.154-2.484-5.576   c-1.582-1.424-3.695-2.104-5.809-1.882c-0.601,0.063-60.648,6.387-108.021,6.387c-47.371,0-107.42-6.323-108.021-6.387   c-2.113-0.223-4.227,0.46-5.809,1.882c-1.581,1.422-2.484,3.449-2.484,5.576v37.735c0,0.01,0,0.019,0,0.029V410H59.122V207.76   c0-17.065,2.572-33.708,7.359-49.512h138.391l0.156,2.956c0.211,3.982,3.501,7.104,7.489,7.104h39.965   c3.988,0,7.278-3.121,7.489-7.104l0.156-2.956h138.135c4.787,15.806,7.358,32.449,7.358,49.512V410z"/></g><g transform="matrix(0.10752595961093903 0 0 0.10752595961093903 150 325)" id="L1_18"><rect x="111px" y="123px" width="242px" height="121px" fill="#fecc33"/><path d="M441.046,374.71c5.234-17.656,8.196-35.931,8.826-54.424H15.128   c0.63,18.496,3.591,36.769,8.825,54.424c1.166,3.932-1.046,8.059-4.945,9.282c1.624,4.871,3.419,9.664,5.36,14.381   c5.675-2.725,10.69-6.833,14.609-12.139c1.414-1.914,3.652-3.042,6.031-3.043s4.617,1.128,6.032,3.041   c7.39,9.997,19.146,15.964,31.447,15.964c12.348,0,24.13-5.967,31.515-15.962c1.414-1.914,3.653-3.043,6.032-3.043   c0.002,0,0.005,0,0.007,0c2.382,0.002,4.621,1.136,6.033,3.054c7.353,9.989,19.104,15.952,31.438,15.952   c12.478,0,23.954-5.823,31.488-15.975c1.415-1.907,3.648-3.031,6.022-3.031c0.005,0,0.01,0,0.015,0   c2.379,0.004,4.615,1.138,6.025,3.054c7.353,9.989,19.105,15.952,31.438,15.952c12.324,0,24.093-5.967,31.479-15.963   c1.413-1.913,3.651-3.042,6.03-3.042c2.38,0,4.617,1.128,6.032,3.042c7.5,10.146,18.961,15.964,31.446,15.964   c12.324,0,24.093-5.967,31.479-15.963c1.414-1.914,3.653-3.042,6.032-3.042c2.38,0,4.618,1.129,6.032,3.043   c7.386,9.995,19.153,15.962,31.479,15.962c12.333,0,24.085-5.963,31.438-15.952c1.412-1.918,3.651-3.051,6.033-3.054   c0.002,0,0.005,0,0.007,0c2.379,0,4.617,1.129,6.032,3.042c3.92,5.305,8.935,9.413,14.61,12.139   c1.942-4.717,3.736-9.509,5.36-14.38C442.092,382.769,439.88,378.643,441.046,374.71z" fill="#ff9926"/><path d="M15.002,233.482c0.021,5.072,4.152,9.192,9.229,9.192h16.183v-18.461H24.23   c-5.083,0-9.219,4.13-9.229,9.211c0,0.007,0.001,0.013,0.001,0.019V233.482z" fill="#ff9926"/><path d="M450.004,233.444c0-5.09-4.141-9.23-9.23-9.23h-16.183v18.461h16.183   C445.863,242.674,450.004,238.534,450.004,233.444z" fill="#ff9926"/><path d="M103.567,259.541h257.865c4.143,0,7.5-3.358,7.5-7.5V115.722c0-4.142-3.357-7.5-7.5-7.5H240V55.307   c0-4.142-3.357-7.5-7.5-7.5s-7.5,3.358-7.5,7.5v52.915H103.567c-4.143,0-7.5,3.358-7.5,7.5v136.319   C96.067,256.183,99.425,259.541,103.567,259.541z M111.067,123.222h242.865v121.319H111.067V123.222z"/><path d="M426.021,386.234c-1.415-1.914-3.653-3.042-6.032-3.042c-0.002,0-0.005,0-0.007,0c-2.382,0.002-4.621,1.136-6.033,3.054   c-7.353,9.989-19.104,15.952-31.438,15.952c-12.325,0-24.093-5.967-31.479-15.962c-1.414-1.914-3.652-3.043-6.032-3.043   c-2.379,0-4.618,1.129-6.032,3.042c-7.386,9.996-19.154,15.963-31.479,15.963c-12.485,0-23.946-5.818-31.446-15.964   c-1.415-1.913-3.652-3.042-6.032-3.042c-2.379,0-4.617,1.129-6.03,3.042c-7.387,9.996-19.155,15.963-31.479,15.963   c-12.333,0-24.086-5.963-31.438-15.952c-1.41-1.916-3.646-3.049-6.025-3.054c-0.005,0-0.01,0-0.015,0   c-2.374,0-4.607,1.124-6.022,3.031c-7.534,10.152-19.011,15.975-31.488,15.975c-12.333,0-24.085-5.963-31.438-15.952   c-1.412-1.918-3.651-3.052-6.033-3.054c-0.002,0-0.005,0-0.007,0c-2.379,0-4.618,1.129-6.032,3.043   c-7.385,9.995-19.167,15.962-31.515,15.962c-12.301,0-24.058-5.968-31.447-15.964c-1.415-1.913-3.653-3.042-6.032-3.041   s-4.617,1.129-6.031,3.043c-3.92,5.305-8.934,9.413-14.609,12.139c-5.176,2.486-10.901,3.824-16.868,3.824   c-4.143,0-7.5,3.358-7.5,7.5s3.357,7.5,7.5,7.5c14.009,0,27.488-5.557,37.511-15.185c10.021,9.629,23.489,15.185,37.478,15.185   c14.024,0,27.513-5.553,37.538-15.177c10,9.624,23.47,15.177,37.486,15.177c14.213,0,27.474-5.438,37.516-15.165   c9.998,9.616,23.463,15.165,37.474,15.165c13.999,0,27.47-5.548,37.49-15.165c10.02,9.728,23.273,15.165,37.498,15.165   c14.008,0,27.488-5.556,37.511-15.185c10.021,9.628,23.502,15.185,37.511,15.185c14.017,0,27.485-5.553,37.485-15.177   c10.022,9.625,23.498,15.177,37.503,15.177c4.143,0,7.5-3.358,7.5-7.5s-3.357-7.5-7.5-7.5c-5.967,0-11.692-1.338-16.869-3.824   C434.956,395.647,429.942,391.539,426.021,386.234z"/><path d="M23.953,374.71c-5.234-17.655-8.195-35.928-8.825-54.424h434.744c-0.63,18.493-3.592,36.768-8.826,54.424   c-1.166,3.933,1.046,8.059,4.946,9.283c0.038,0.012,0.074,0.028,0.113,0.04c0.711,0.211,1.429,0.312,2.135,0.312   c3.235,0,6.222-2.11,7.188-5.37c6.344-21.395,9.563-43.631,9.572-66.093c0-0.032,0.005-0.062,0.005-0.094v-79.342   c0-13.361-10.87-24.23-24.23-24.23h-16.183v-0.229c0-4.142-3.357-7.5-7.5-7.5s-7.5,3.358-7.5,7.5v48.918c0,4.142,3.357,7.5,7.5,7.5   s7.5-3.358,7.5-7.5v-0.229h16.183c3.267,0,6.384-0.654,9.23-1.831v49.443H240v-23.245c0-4.142-3.357-7.5-7.5-7.5   s-7.5,3.358-7.5,7.5v23.245H15.002v-49.442c2.846,1.177,5.962,1.831,9.229,1.831h16.183v0.229c0,4.142,3.357,7.5,7.5,7.5   s7.5-3.358,7.5-7.5v-48.918c0-4.142-3.357-7.5-7.5-7.5s-7.5,3.358-7.5,7.5v0.229H24.23c-13.36,0-24.23,10.87-24.23,24.23   c0,0.026,0.002,0.051,0.002,0.077v79.227c0,0.013-0.002,0.026-0.002,0.039c0,22.496,3.221,44.765,9.572,66.188   c1.178,3.972,5.354,6.236,9.322,5.059c0.039-0.011,0.075-0.028,0.113-0.04C22.907,382.769,25.119,378.642,23.953,374.71z    M24.23,224.213h16.183v18.461H24.23c-5.077,0-9.207-4.12-9.229-9.192v-0.039c0-0.007-0.001-0.013-0.001-0.019   C15.012,228.344,19.147,224.213,24.23,224.213z M424.591,242.674v-18.461h16.183c5.09,0,9.23,4.141,9.23,9.23   s-4.141,9.23-9.23,9.23H424.591z"/></g></defs><g fi:class="KUsePattern"><pattern id="pattern_L1_15" width="350" height="350" patternUnits="userSpaceOnUse"><use xlink:href="#L1_15" x="-350" y="-350"/><use xlink:href="#L1_15" x="0" y="-350"/><use xlink:href="#L1_15" x="350" y="-350"/><use xlink:href="#L1_15" x="-350" y="0"/><use xlink:href="#L1_15" x="0" y="0"/><use xlink:href="#L1_15" x="350" y="0"/><use xlink:href="#L1_15" x="-350" y="350"/><use xlink:href="#L1_15" x="0" y="350"/><use xlink:href="#L1_15" x="350" y="350"/></pattern><rect x="0" y="0" width="100%" height="100%" fill="url(#pattern_L1_15)"/></g><g fi:class="KUsePattern"><pattern id="pattern_L1_16" width="350" height="350" patternUnits="userSpaceOnUse"><use xlink:href="#L1_16" x="-350" y="-350"/><use xlink:href="#L1_16" x="0" y="-350"/><use xlink:href="#L1_16" x="350" y="-350"/><use xlink:href="#L1_16" x="-350" y="0"/><use xlink:href="#L1_16" x="0" y="0"/><use xlink:href="#L1_16" x="350" y="0"/><use xlink:href="#L1_16" x="-350" y="350"/><use xlink:href="#L1_16" x="0" y="350"/><use xlink:href="#L1_16" x="350" y="350"/></pattern><rect x="0" y="0" width="100%" height="100%" fill="url(#pattern_L1_16)"/></g><g fi:class="KUsePattern"><pattern id="pattern_L1_17" width="350" height="350" patternUnits="userSpaceOnUse"><use xlink:href="#L1_17" x="-350" y="-350"/><use xlink:href="#L1_17" x="0" y="-350"/><use xlink:href="#L1_17" x="350" y="-350"/><use xlink:href="#L1_17" x="-350" y="0"/><use xlink:href="#L1_17" x="0" y="0"/><use xlink:href="#L1_17" x="350" y="0"/><use xlink:href="#L1_17" x="-350" y="350"/><use xlink:href="#L1_17" x="0" y="350"/><use xlink:href="#L1_17" x="350" y="350"/></pattern><rect x="0" y="0" width="100%" height="100%" fill="url(#pattern_L1_17)"/></g><g fi:class="KUsePattern"><pattern id="pattern_L1_18" width="350" height="350" patternUnits="userSpaceOnUse"><use xlink:href="#L1_18" x="-350" y="-350"/><use xlink:href="#L1_18" x="0" y="-350"/><use xlink:href="#L1_18" x="350" y="-350"/><use xlink:href="#L1_18" x="-350" y="0"/><use xlink:href="#L1_18" x="0" y="0"/><use xlink:href="#L1_18" x="350" y="0"/><use xlink:href="#L1_18" x="-350" y="350"/><use xlink:href="#L1_18" x="0" y="350"/><use xlink:href="#L1_18" x="350" y="350"/></pattern><rect x="0" y="0" width="100%" height="100%" fill="url(#pattern_L1_18)"/></g></svg>